<?xml version="1.0" encoding="UTF-8"?> <svg xmlns="http://www.w3.org/2000/svg" width="385" height="414" viewBox="0 0 385 414" fill="none"><path fill-rule="evenodd" clip-rule="evenodd" d="M379.15 372.414L382.814 409.346C369.578 412.475 353.835 414.179 339.327 412.562L332.816 375.785C348.516 376.688 363.441 375.915 379.15 372.414Z" fill="#C4C2C2" stroke="#282829" stroke-width="0.639874" stroke-miterlimit="22.9256"></path><path d="M379.654 371.236C362.586 373.497 350.427 374.613 330.047 373.47" stroke="#282829" stroke-width="0.639874" stroke-miterlimit="22.9256" stroke-dasharray="3.2 3.2"></path><path d="M374.801 372.919L380.62 409.846" stroke="#282829" stroke-width="0.639874" stroke-miterlimit="22.9256"></path><path d="M370.191 374.172L376.174 410.752" stroke="#282829" stroke-width="0.639874" stroke-miterlimit="22.9256"></path><path d="M370.742 374.798C388.454 342.924 374.883 319.861 369.424 357.224" stroke="#282829" stroke-width="0.320126" stroke-miterlimit="22.9256"></path><path d="M353.305 376.661C359.259 372.561 362.325 356.949 359.44 354.901C357.465 353.498 355.453 355.11 354.987 357.577C354.685 359.182 354.488 362.491 354.488 364.25" stroke="#282829" stroke-width="0.320126" stroke-miterlimit="22.9256"></path><path d="M335.766 376.742C315.794 340.802 331.096 314.796 337.252 356.926" stroke="#282829" stroke-width="0.320126" stroke-miterlimit="22.9256"></path><path d="M309.311 177.212L310.176 140.062" stroke="#282829" stroke-width="0.639874" stroke-miterlimit="22.9256"></path><path d="M309.338 172.507C318.817 150.665 328.064 140.004 341.951 125.933" stroke="#282829" stroke-width="0.639874" stroke-miterlimit="22.9256" stroke-dasharray="3.2 3.2"></path><path d="M365.434 375.063L371.417 411.643" stroke="#282829" stroke-width="0.639874" stroke-miterlimit="22.9256"></path><path d="M360.412 375.954L366.395 412.535" stroke="#282829" stroke-width="0.639874" stroke-miterlimit="22.9256"></path><path d="M355.371 376.014L361.354 412.594" stroke="#282829" stroke-width="0.639874" stroke-miterlimit="22.9256"></path><path d="M350.148 376.309L356.131 412.889" stroke="#282829" stroke-width="0.639874" stroke-miterlimit="22.9256"></path><path d="M345.174 376.729L351.156 413.31" stroke="#282829" stroke-width="0.639874" stroke-miterlimit="22.9256"></path><path d="M339.586 376.512L345.569 413.092" stroke="#282829" stroke-width="0.639874" stroke-miterlimit="22.9256"></path><path d="M334.027 375.847L340.01 412.427" stroke="#282829" stroke-width="0.639874" stroke-miterlimit="22.9256"></path><path fill-rule="evenodd" clip-rule="evenodd" d="M342.15 127.346C322.622 142.333 315.362 163.135 309.287 174.688C312.266 256.988 301.62 280.677 323.129 353.147C325.955 362.669 323.662 367.988 332.816 375.785C351.832 376.354 354.286 377.762 378.926 372.888C387.067 362.593 381.882 364.458 383.513 350.569C388.69 306.496 367.616 216.82 342.15 127.346Z" fill="#C4C2C2" stroke="#282829" stroke-width="0.639874" stroke-miterlimit="22.9256"></path><path d="M371.383 374.234C389.095 342.36 375.524 319.297 370.064 356.659" stroke="#282829" stroke-width="0.320126" stroke-miterlimit="22.9256"></path><path d="M353.947 376.096C359.902 371.997 362.967 356.385 360.083 354.336C358.108 352.934 356.095 354.546 355.63 357.013C355.327 358.617 355.131 361.927 355.131 363.685" stroke="#282829" stroke-width="0.320126" stroke-miterlimit="22.9256"></path><path d="M336.406 376.178C316.435 340.238 331.737 314.231 337.893 356.362" stroke="#282829" stroke-width="0.320126" stroke-miterlimit="22.9256"></path><path fill-rule="evenodd" clip-rule="evenodd" d="M5.47245 372.373L1.80859 409.305C15.0441 412.435 30.7877 414.138 45.2955 412.521L52.342 376.229C36.6426 377.131 21.1821 375.874 5.47245 372.373Z" fill="#C4C2C2" stroke="#282829" stroke-width="0.639874" stroke-miterlimit="22.9256"></path><path d="M4.96875 371.196C22.0363 373.457 34.1958 374.574 54.5758 373.431" stroke="#282829" stroke-width="0.639874" stroke-miterlimit="22.9256" stroke-dasharray="3.2 3.2"></path><path d="M9.82095 372.879L4.00195 409.806" stroke="#282829" stroke-width="0.639874" stroke-miterlimit="22.9256"></path><path d="M14.4318 374.132L8.44922 410.711" stroke="#282829" stroke-width="0.639874" stroke-miterlimit="22.9256"></path><path d="M13.8819 374.758C-3.82967 342.884 9.74105 319.821 15.2006 357.184" stroke="#282829" stroke-width="0.320126" stroke-miterlimit="22.9256"></path><path d="M31.3163 376.621C25.3624 372.522 22.2965 356.91 25.181 354.86C27.1558 353.458 29.1684 355.07 29.634 357.537C29.9364 359.142 30.1333 362.451 30.1333 364.21" stroke="#282829" stroke-width="0.320126" stroke-miterlimit="22.9256"></path><path d="M48.8576 376.702C68.8294 340.761 53.5268 314.755 47.3711 356.885" stroke="#282829" stroke-width="0.320126" stroke-miterlimit="22.9256"></path><path fill-rule="evenodd" clip-rule="evenodd" d="M128.024 47.8838C148.658 63.6206 168.85 71.4352 192.366 74.1171C208.993 76.0137 244.718 59.6102 256.901 48.5259C280.07 60.4991 290.485 67.3457 311.972 78.3086C327.938 86.4543 338.368 106.546 342.184 127.694C323.662 144.373 318.047 156.916 311.622 175.706L309.81 316.528C309.382 333.35 310.475 347.141 302.92 351.887L76.329 351.651C70.0678 343.125 71.337 331.53 71.2867 315.15L75.3202 175.721C63.2782 148.985 57.4079 144.282 42.4277 127.482C48.1639 104.665 56.8164 98.9161 74.5454 82.3225C92.3436 65.6646 105.942 59.8037 128.024 47.8838Z" fill="#C4C2C2" stroke="#282829" stroke-width="0.639874" stroke-miterlimit="22.9256"></path><path d="M75.3112 177.172L74.4453 140.021" stroke="#282829" stroke-width="0.639874" stroke-miterlimit="22.9256"></path><path fill-rule="evenodd" clip-rule="evenodd" d="M128.289 264.837L248.904 264.877L276.23 321.935L272.679 351.851L105.163 351.874L101.818 322.917L128.289 264.837Z" fill="#C4C2C2" stroke="#282829" stroke-width="0.639874" stroke-miterlimit="22.9256"></path><path d="M127.457 266.667L249.789 266.634" stroke="#282829" stroke-width="0.639874" stroke-miterlimit="22.9256" stroke-dasharray="3.2 3.2"></path><path d="M107.012 350.401L103.33 319.604" stroke="#282829" stroke-width="0.639874" stroke-miterlimit="22.9256" stroke-dasharray="3.2 3.2"></path><path d="M103.082 333.337L135.639 264.909" stroke="#282829" stroke-width="0.639874" stroke-miterlimit="22.9256" stroke-dasharray="3.2 3.2"></path><path d="M103.422 336.132L137.465 264.679" stroke="#282829" stroke-width="0.639874" stroke-miterlimit="22.9256" stroke-dasharray="3.2 3.2"></path><path d="M270.939 350.401L274.622 319.604" stroke="#282829" stroke-width="0.639874" stroke-miterlimit="22.9256" stroke-dasharray="3.2 3.2"></path><path d="M274.867 333.337L242.311 264.909" stroke="#282829" stroke-width="0.639874" stroke-miterlimit="22.9256" stroke-dasharray="3.2 3.2"></path><path d="M274.53 336.132L240.486 264.679" stroke="#282829" stroke-width="0.639874" stroke-miterlimit="22.9256" stroke-dasharray="3.2 3.2"></path><path d="M92.118 356.257C66.5279 337.136 79.1477 321.846 85.4732 339.727" stroke="#282829" stroke-width="0.320126" stroke-miterlimit="22.9256"></path><path d="M283.938 357.685C309.528 338.564 296.908 323.274 290.582 341.154" stroke="#282829" stroke-width="0.320126" stroke-miterlimit="22.9256"></path><path fill-rule="evenodd" clip-rule="evenodd" d="M76.332 392.579L302.527 392.929L302.905 351.961L76.6458 351.663L76.332 392.579Z" fill="#C4C2C2" stroke="#282829" stroke-width="0.639874" stroke-miterlimit="22.9256"></path><path d="M92.8405 352.379L92.8145 392.119" stroke="#282829" stroke-width="0.639874" stroke-miterlimit="22.9256"></path><path d="M97.6077 351.689L97.582 392.881" stroke="#282829" stroke-width="0.639874" stroke-miterlimit="22.9256"></path><path d="M102.807 352.12L102.781 392.62" stroke="#282829" stroke-width="0.639874" stroke-miterlimit="22.9256"></path><path d="M107.366 351.628L107.34 392.82" stroke="#282829" stroke-width="0.639874" stroke-miterlimit="22.9256"></path><path d="M112.131 352.206L112.105 392.635" stroke="#282829" stroke-width="0.639874" stroke-miterlimit="22.9256"></path><path d="M117.33 352.636L117.305 392.034" stroke="#282829" stroke-width="0.639874" stroke-miterlimit="22.9256"></path><path d="M121.776 352.336L121.75 392.65" stroke="#282829" stroke-width="0.639874" stroke-miterlimit="22.9256"></path><path d="M126.543 351.646L126.518 392.837" stroke="#282829" stroke-width="0.639874" stroke-miterlimit="22.9256"></path><path d="M131.742 352.076L131.717 392.665" stroke="#282829" stroke-width="0.639874" stroke-miterlimit="22.9256"></path><path d="M136.52 352.353L136.494 392.672" stroke="#282829" stroke-width="0.639874" stroke-miterlimit="22.9256"></path><path d="M141.287 351.664L141.262 392.855" stroke="#282829" stroke-width="0.639874" stroke-miterlimit="22.9256"></path><path d="M146.487 352.094L146.461 392.688" stroke="#282829" stroke-width="0.639874" stroke-miterlimit="22.9256"></path><path d="M151.043 351.522L151.018 392.714" stroke="#282829" stroke-width="0.639874" stroke-miterlimit="22.9256"></path><path d="M155.811 351.917L155.785 393.109" stroke="#282829" stroke-width="0.639874" stroke-miterlimit="22.9256"></path><path d="M161.01 352.61L160.984 392.712" stroke="#282829" stroke-width="0.639874" stroke-miterlimit="22.9256"></path><path d="M165.454 352.31L165.428 392.719" stroke="#282829" stroke-width="0.639874" stroke-miterlimit="22.9256"></path><path d="M170.22 352.695L170.195 392.812" stroke="#282829" stroke-width="0.639874" stroke-miterlimit="22.9256"></path><path d="M175.423 352.051L175.396 392.734" stroke="#282829" stroke-width="0.639874" stroke-miterlimit="22.9256"></path><path d="M181.387 352.196L181.361 392.286" stroke="#282829" stroke-width="0.639874" stroke-miterlimit="22.9256"></path><path d="M186.743 351.833L186.717 393.024" stroke="#282829" stroke-width="0.639874" stroke-miterlimit="22.9256"></path><path d="M192.75 351.86L192.725 392.711" stroke="#282829" stroke-width="0.639874" stroke-miterlimit="22.9256"></path><path d="M197.518 352.4L197.492 393.251" stroke="#282829" stroke-width="0.639874" stroke-miterlimit="22.9256"></path><path d="M202.719 352.16L202.693 393.011" stroke="#282829" stroke-width="0.639874" stroke-miterlimit="22.9256"></path><path d="M207.16 352.528L207.135 393.38" stroke="#282829" stroke-width="0.639874" stroke-miterlimit="22.9256"></path><path d="M211.928 351.845L211.902 392.696" stroke="#282829" stroke-width="0.639874" stroke-miterlimit="22.9256"></path><path d="M217.13 352.272L217.104 393.123" stroke="#282829" stroke-width="0.639874" stroke-miterlimit="22.9256"></path><path d="M222.122 352.64L222.096 393.491" stroke="#282829" stroke-width="0.639874" stroke-miterlimit="22.9256"></path><path d="M226.889 351.957L226.863 392.808" stroke="#282829" stroke-width="0.639874" stroke-miterlimit="22.9256"></path><path d="M232.09 352.384L232.064 393.234" stroke="#282829" stroke-width="0.639874" stroke-miterlimit="22.9256"></path><path d="M236.534 352.085L236.508 392.936" stroke="#282829" stroke-width="0.639874" stroke-miterlimit="22.9256"></path><path d="M241.301 352.085L241.275 392.936" stroke="#282829" stroke-width="0.639874" stroke-miterlimit="22.9256"></path><path d="M246.5 351.829L246.475 392.679" stroke="#282829" stroke-width="0.639874" stroke-miterlimit="22.9256"></path><path d="M251.277 352.103L251.252 392.953" stroke="#282829" stroke-width="0.639874" stroke-miterlimit="22.9256"></path><path d="M256.043 352.273L256.018 393.124" stroke="#282829" stroke-width="0.639874" stroke-miterlimit="22.9256"></path><path d="M261.245 351.846L261.219 392.697" stroke="#282829" stroke-width="0.639874" stroke-miterlimit="22.9256"></path><path d="M265.801 352.614L265.775 392.875" stroke="#282829" stroke-width="0.639874" stroke-miterlimit="22.9256"></path><path d="M270.569 351.932L270.543 392.782" stroke="#282829" stroke-width="0.639874" stroke-miterlimit="22.9256"></path><path d="M275.77 352.357L275.744 393.208" stroke="#282829" stroke-width="0.639874" stroke-miterlimit="22.9256"></path><path d="M280.854 352.06L280.828 392.91" stroke="#282829" stroke-width="0.639874" stroke-miterlimit="22.9256"></path><path d="M286.14 352.443L286.115 392.908" stroke="#282829" stroke-width="0.639874" stroke-miterlimit="22.9256"></path><path d="M88.2039 351.095L88.1777 392.286" stroke="#282829" stroke-width="0.639874" stroke-miterlimit="22.9256"></path><path d="M82.3344 351.045L82.3086 392.236" stroke="#282829" stroke-width="0.639874" stroke-miterlimit="22.9256"></path><path d="M291.841 351.959L291.816 392.917" stroke="#282829" stroke-width="0.639874" stroke-miterlimit="22.9256"></path><path fill-rule="evenodd" clip-rule="evenodd" d="M142.642 0.432617C174.45 9.98651 207.401 10.883 241.784 0.923577C248.279 39.8055 219.692 61.0324 192.016 74.285C150.948 53.5195 139.362 25.3941 142.642 0.432617Z" fill="#B8B6B6" stroke="#282829" stroke-width="0.566929" stroke-miterlimit="22.9256"></path><path fill-rule="evenodd" clip-rule="evenodd" d="M195.979 74.0061C174.728 60.0657 159.25 41.3208 149.297 24.243C146.123 18.4803 141.878 10.2946 142.931 0.429688C126.013 4.96928 103.698 27.5493 103.759 43.2464C99.9708 46.9228 95.6912 59.8442 94.8359 65.8231C106.385 60.1942 115.444 52.9768 128.104 48.0351C148.61 64.2425 180.1 76.3899 195.979 74.0061Z" fill="#C4C2C2" stroke="#282829" stroke-width="0.639874" stroke-miterlimit="22.9256"></path><path d="M135.654 3.19336C135.776 9.35059 137.076 15.3317 140.302 21.4923C149.453 40.9372 157.286 56.2927 180.769 73.3463" stroke="#282829" stroke-width="0.639874" stroke-miterlimit="22.9256" stroke-dasharray="3.2 3.2"></path><path fill-rule="evenodd" clip-rule="evenodd" d="M187.748 74.0468C208.996 60.1072 223.991 45.0854 234.744 23.8672C237.669 18.0943 243.127 10.7847 242.074 0.920898C258.992 5.46049 281.307 28.0401 281.246 43.7369C285.034 47.4132 290.439 61.289 291.294 67.2682C279.537 61.896 268.252 54.7085 256.901 48.5256C235.282 66.0996 212.294 75.0378 187.748 74.0468Z" fill="#C4C2C2" stroke="#282829" stroke-width="0.639874" stroke-miterlimit="22.9256"></path><path d="M249.289 3.55859C249.167 9.71469 247.867 15.6962 244.641 21.8572C231.625 43.4863 226.818 57.4894 202.67 73.9886" stroke="#282829" stroke-width="0.639874" stroke-miterlimit="22.9256" stroke-dasharray="3.2 3.2"></path><path d="M192.851 7.99316L192.533 70.7998" stroke="#282829" stroke-width="0.566929" stroke-miterlimit="22.9256"></path><path d="M142.988 7.11035C175.577 16.1801 208.606 16.5168 241.829 8.88409" stroke="#282829" stroke-width="0.566929" stroke-miterlimit="22.9256" stroke-dasharray="3.2 3.2"></path><path d="M19.1877 375.023L13.2051 411.604" stroke="#282829" stroke-width="0.639874" stroke-miterlimit="22.9256"></path><path d="M24.2115 375.914L18.2285 412.495" stroke="#282829" stroke-width="0.639874" stroke-miterlimit="22.9256"></path><path d="M29.2506 375.975L23.2676 412.555" stroke="#282829" stroke-width="0.639874" stroke-miterlimit="22.9256"></path><path d="M34.4751 376.269L28.4922 412.849" stroke="#282829" stroke-width="0.639874" stroke-miterlimit="22.9256"></path><path d="M39.4478 376.688L33.4648 413.269" stroke="#282829" stroke-width="0.639874" stroke-miterlimit="22.9256"></path><path d="M45.0377 376.472L39.0547 413.052" stroke="#282829" stroke-width="0.639874" stroke-miterlimit="22.9256"></path><path d="M50.5963 375.808L44.6133 412.387" stroke="#282829" stroke-width="0.639874" stroke-miterlimit="22.9256"></path><path fill-rule="evenodd" clip-rule="evenodd" d="M42.472 127.306C59.2946 144.478 69.8278 161.045 75.335 174.649C72.3552 256.949 83.0017 280.638 61.4924 353.107C58.6669 362.629 61.4955 368.432 52.3419 376.229C33.3259 376.798 30.3359 377.722 5.69569 372.848C-2.44617 362.553 2.7393 364.418 1.10844 350.529C-4.06876 306.456 17.0059 216.78 42.472 127.306Z" fill="#C4C2C2" stroke="#282829" stroke-width="0.639874" stroke-miterlimit="22.9256"></path><path d="M13.2396 374.194C-4.47239 342.32 9.09841 319.257 14.5583 356.619" stroke="#282829" stroke-width="0.320126" stroke-miterlimit="22.9256"></path><path d="M30.676 376.056C24.7218 371.957 21.6558 356.345 24.5404 354.296C26.5155 352.894 28.5282 354.505 28.9934 356.973C29.2962 358.578 29.4926 361.887 29.4926 363.646" stroke="#282829" stroke-width="0.320126" stroke-miterlimit="22.9256"></path><path d="M48.215 376.138C68.1868 340.197 52.8842 314.192 46.7285 356.321" stroke="#282829" stroke-width="0.320126" stroke-miterlimit="22.9256"></path><path d="M297.08 351.865L297.055 392.824" stroke="#282829" stroke-width="0.639874" stroke-miterlimit="22.9256"></path><path d="M311.61 177.738L310.744 127.954" stroke="#282829" stroke-width="0.639874" stroke-miterlimit="22.9256"></path><path d="M74.9805 350.431L305.643 350.558" stroke="#282829" stroke-width="0.755906" stroke-miterlimit="22.9256" stroke-dasharray="3.2 3.2"></path><path d="M126.812 48.7314C148.844 67.072 170.314 76.1391 193.127 76.4135C214.712 76.6724 236.904 67.5735 258.901 49.5633" stroke="#282829" stroke-width="0.755906" stroke-miterlimit="22.9256" stroke-dasharray="3.2 3.2"></path><path d="M313.238 305.004C313.267 304.974 313.295 304.935 313.324 304.908C313.363 304.873 313.386 304.854 313.417 304.812C313.441 304.779 313.535 304.597 313.549 304.56C313.447 304.613 313.432 304.649 313.262 304.616C313.063 304.576 312.849 304.492 312.648 304.485L312.469 304.654C312.469 304.654 312.885 304.619 313.183 304.816C313.27 304.874 313.275 304.887 313.238 305.004Z" fill="#C4C2C2"></path><path fill-rule="evenodd" clip-rule="evenodd" d="M208.723 62.6352C209.395 64.7729 203.927 71.7809 202.951 70.649C199.217 66.3157 208.901 59.0757 208.723 62.6352Z" fill="#B8B6B6" stroke="#282829" stroke-width="0.755906" stroke-miterlimit="22.9256"></path><path fill-rule="evenodd" clip-rule="evenodd" d="M208.696 62.2471C209.818 76.6089 203.409 147.068 206.689 169.024C207.081 171.652 210.243 195.602 209.37 195.602C199.674 195.602 204.423 197.332 202.006 170.272C199.006 136.683 206.265 95.5167 202.943 70.94C202.873 70.4248 203.542 68.1492 203.746 67.7947C205.693 64.4067 206.432 62.9769 208.696 62.2471Z" fill="#C4C2C2" stroke="#282829" stroke-width="0.755906" stroke-miterlimit="22.9256"></path><path fill-rule="evenodd" clip-rule="evenodd" d="M175.276 62.096C174.604 64.2345 180.072 71.2425 181.048 70.1098C184.782 65.7765 175.098 58.5368 175.276 62.096Z" fill="#B8B6B6" stroke="#282829" stroke-width="0.755906" stroke-miterlimit="22.9256"></path><path fill-rule="evenodd" clip-rule="evenodd" d="M175.304 61.708C174.183 76.071 180.591 146.53 177.311 168.485C176.919 171.113 173.757 195.063 174.631 195.063C184.327 195.063 179.577 196.793 181.994 169.733C184.994 136.144 177.735 94.9784 181.058 70.4017C181.127 69.8858 180.458 67.6105 180.254 67.2556C178.307 63.868 177.568 62.4386 175.304 61.708Z" fill="#C4C2C2" stroke="#282829" stroke-width="0.755906" stroke-miterlimit="22.9256"></path></svg> 