<?xml version="1.0" encoding="UTF-8"?> <svg xmlns="http://www.w3.org/2000/svg" width="394" height="389" viewBox="0 0 394 389" fill="none"><path fill-rule="evenodd" clip-rule="evenodd" d="M152.457 16.3019C175.598 20.747 208.094 21.2757 235.88 14.4473C226.242 24.8466 214.383 35.9437 202.425 38.281L193.407 84.1641L185.204 38.3464C172.76 35.5476 161.034 26.0867 152.457 16.3019Z" fill="#A3A1A1" stroke="#282829" stroke-width="0.755906" stroke-miterlimit="22.9256"></path><path fill-rule="evenodd" clip-rule="evenodd" d="M329.981 66.9131C317.716 74.6702 311.941 105.496 308.38 127.831C308.245 138.802 304.84 169.929 308.957 211.241C314.675 268.612 329.856 340.23 343.427 356.626C364.139 357.668 369.59 357.577 388.863 353.628C412.536 331.744 341.077 98.94 329.981 66.9131Z" fill="#C4C2C2" stroke="#282829" stroke-width="0.566929" stroke-miterlimit="22.9256"></path><path d="M380.678 355.195C398.193 323.867 384.896 301.132 379.426 337.893" stroke="#282829" stroke-width="0.566929" stroke-miterlimit="22.9256"></path><path d="M346.246 357.018C326.681 321.591 341.81 296.033 347.76 337.517" stroke="#282829" stroke-width="0.566929" stroke-miterlimit="22.9256"></path><path d="M363.512 356.983C369.383 352.963 372.441 337.605 369.607 335.581C367.667 334.195 365.682 335.776 365.217 338.204C364.915 339.782 364.713 343.039 364.708 344.77" stroke="#282829" stroke-width="0.566929" stroke-miterlimit="22.9256"></path><path fill-rule="evenodd" clip-rule="evenodd" d="M389.031 353.561C374.715 357.585 359.671 358.232 343.426 356.625L349.938 387.025C366.187 388.765 373.663 388.022 389.651 382.996L389.031 353.561Z" fill="#C4C2C2" stroke="#282829" stroke-width="0.566929" stroke-miterlimit="22.9256"></path><path fill-rule="evenodd" clip-rule="evenodd" d="M63.9431 67.5127C76.2073 75.2702 81.9828 106.096 85.5438 128.431C85.6788 139.402 89.0834 170.529 84.9664 211.84C79.2483 269.212 64.0678 340.831 50.4974 357.226C29.7845 358.267 24.3333 358.177 5.06072 354.228C-18.612 332.344 52.8464 99.54 63.9431 67.5127Z" fill="#C4C2C2" stroke="#282829" stroke-width="0.566929" stroke-miterlimit="22.9256"></path><path d="M13.2487 355.795C-4.26711 324.468 9.03037 301.732 14.5005 338.494" stroke="#282829" stroke-width="0.566929" stroke-miterlimit="22.9256"></path><path d="M47.6785 357.618C67.2436 322.191 52.1146 296.633 46.1641 338.116" stroke="#282829" stroke-width="0.566929" stroke-miterlimit="22.9256"></path><path d="M30.4153 357.584C24.5438 353.565 21.4858 338.206 24.3197 336.181C26.2601 334.796 28.2452 336.377 28.71 338.805C29.0116 340.383 29.2138 343.64 29.2187 345.371" stroke="#282829" stroke-width="0.566929" stroke-miterlimit="22.9256"></path><path d="M302.719 143.867L303.495 102.625" stroke="#282829" stroke-width="0.566929" stroke-miterlimit="22.9256"></path><path fill-rule="evenodd" clip-rule="evenodd" d="M152.222 4.52335C153.361 5.6368 155.828 6.33336 155.545 7.84744C152.353 24.9343 177.301 33.301 181.842 44.6419C198.489 86.2129 181.821 95.6436 208.703 40.636C213.611 30.5919 226.651 28.2856 235.374 13.3353C236.706 11.0513 232.914 6.11717 234.338 3.70508C247.751 13.5946 297.48 26.6718 311.65 37.9174C318.638 43.5935 325.347 48.1712 329.963 67.0148C317.358 82.9323 311.386 116.249 308.111 139.968L309.511 343.036C309.174 346.971 308.401 348.633 306.092 350.323H87.9455C85.3868 348.311 84.0564 345.888 84.0881 343.013L85.5429 141.671C80.3298 117.987 75.1349 83.3643 63.9414 67.513C67.5834 51.467 72.9661 46.0362 84.6203 37.5356C96.3553 29.1171 136.159 14.8683 152.222 4.52335Z" fill="#C4C2C2" stroke="#282829" stroke-width="0.566929" stroke-miterlimit="22.9256"></path><path d="M86.8203 348.18L307.548 348.97" stroke="#282829" stroke-width="0.566929" stroke-miterlimit="22.9256" stroke-dasharray="3.2 3.2"></path><path d="M85.513 141.946L84.5508 100.703" stroke="#282829" stroke-width="0.566929" stroke-miterlimit="22.9256"></path><path fill-rule="evenodd" clip-rule="evenodd" d="M4.88939 354.161C19.2066 358.185 34.2499 358.832 50.4954 357.226L43.9829 387.626C27.734 389.366 20.2577 388.622 4.26953 383.596L4.88939 354.161Z" fill="#C4C2C2" stroke="#282829" stroke-width="0.566929" stroke-miterlimit="22.9256"></path><path d="M308.133 141.946L309.094 100.703" stroke="#282829" stroke-width="0.566929" stroke-miterlimit="22.9256"></path><path fill-rule="evenodd" clip-rule="evenodd" d="M28.3242 187.922L32.3056 173.791L85.3179 174.592L85.2356 189.089L28.3242 187.922Z" fill="#B8B6B6" stroke="#282829" stroke-width="0.566929" stroke-miterlimit="22.9256"></path><path d="M31.7852 174.795L85.1513 175.689" stroke="#282829" stroke-width="0.566929" stroke-miterlimit="22.9256" stroke-dasharray="3.2 3.2"></path><path d="M28.2383 187.179L84.6247 188.073" stroke="#282829" stroke-width="0.566929" stroke-miterlimit="22.9256" stroke-dasharray="3.2 3.2"></path><path fill-rule="evenodd" clip-rule="evenodd" d="M18.8984 225.03L22.4213 210.864L84.9876 211.607L83.3708 226.222L18.8984 225.03Z" fill="#B8B6B6" stroke="#282829" stroke-width="0.566929" stroke-miterlimit="22.9256"></path><path d="M22.4336 211.895L84.8744 212.656" stroke="#282829" stroke-width="0.566929" stroke-miterlimit="22.9256" stroke-dasharray="3.2 3.2"></path><path d="M18.8984 224.286L83.968 225.253" stroke="#282829" stroke-width="0.566929" stroke-miterlimit="22.9256" stroke-dasharray="3.2 3.2"></path><path d="M238.489 133.638L239.979 129.481L243.027 130.199L240.713 146.914L239.43 146.608L238.6 150.004C239.285 150.171 240.046 150.365 240.82 150.569C241.726 150.809 242.675 151.07 243.561 151.321L244.458 147.912L243.404 147.612L245.724 130.864L247.028 131.217L247.93 127.898C246.693 127.57 244.886 127.131 242.975 126.688C240.839 126.192 238.574 125.691 236.833 125.335L235.979 128.597L237.261 128.864L231.514 144.905L230.452 144.702L229.691 148.058C230.521 148.221 231.355 148.389 232.214 148.569C233.055 148.745 233.902 148.93 234.769 149.131L235.562 145.726L234.258 145.445L238.489 133.638ZM240.212 135.095L237.061 143.887L237.873 144.074L237.875 144.065L238.936 144.313L240.212 135.095ZM236.357 151.658L236.35 151.684L235.311 151.432C234.144 151.15 232.973 150.89 231.783 150.641C230.651 150.404 229.458 150.169 228.219 149.929L227.145 149.721L228.839 142.245L230.135 142.488L234.45 130.447L233.363 130.236L235.29 122.873L236.262 123.061C238.076 123.412 240.851 124.021 243.448 124.624C246.007 125.218 248.399 125.809 249.528 126.144L250.524 126.439L248.506 133.867L247.489 133.554L245.754 146.081L247.03 146.456L245.057 153.958L244.016 153.653C242.935 153.336 241.596 152.965 240.281 152.617C239.083 152.301 237.942 152.014 237.087 151.822L236.357 151.658Z" fill="#C4C2C2"></path><path d="M243.095 174.029H243.096H243.098H243.098H243.099H243.1C243.262 174.024 243.424 174.013 243.584 174.004C243.811 173.989 244.034 173.951 244.255 173.896C244.548 173.821 244.833 173.714 245.108 173.586C245.313 173.49 245.511 173.382 245.703 173.267C245.828 173.19 245.951 173.11 246.071 173.029C245.983 172.994 245.894 172.962 245.803 172.93C245.283 172.747 244.724 172.608 244.176 172.532C244.02 172.511 243.865 172.495 243.711 172.484C243.428 172.464 243.146 172.461 242.868 172.486C242.687 172.502 242.507 172.531 242.329 172.575C242.169 172.616 241.951 172.683 241.759 172.786C241.606 172.871 241.47 172.979 241.399 173.115C241.387 173.138 241.377 173.161 241.369 173.186C240.547 173.157 239.782 173.1 239.066 173.017C239.287 172.977 239.507 172.921 239.725 172.854C239.876 172.808 240.027 172.757 240.178 172.699C240.708 172.498 241.235 172.23 241.712 171.928C241.795 171.876 241.877 171.823 241.956 171.769V171.768C241.818 171.714 241.678 171.663 241.534 171.615C241.316 171.544 241.094 171.482 240.867 171.433C240.563 171.368 240.253 171.327 239.944 171.319C239.712 171.314 239.48 171.327 239.25 171.366C239.087 171.393 238.923 171.419 238.76 171.451L238.759 171.452L238.758 171.451H238.758L238.757 171.452L238.757 171.453L238.755 171.453C238.722 171.461 238.521 171.515 237.949 171.756C237.319 172.022 237.162 172.446 237.162 172.446C237.158 172.503 237.166 172.562 237.19 172.621C237.207 172.662 237.228 172.7 237.254 172.733C235.759 172.434 234.508 172.004 233.412 171.476C233.555 171.498 233.699 171.513 233.842 171.523C234.215 171.549 234.59 171.535 234.966 171.499C235.17 171.48 235.377 171.453 235.584 171.419C236.311 171.302 237.052 171.098 237.738 170.838C237.857 170.792 237.976 170.747 238.09 170.698V170.697C237.929 170.592 237.763 170.491 237.592 170.393C237.334 170.245 237.067 170.107 236.791 169.988C236.42 169.824 236.037 169.691 235.645 169.601C235.35 169.535 235.051 169.492 234.749 169.48C234.534 169.471 234.319 169.462 234.102 169.462H234.102L234.101 169.462L234.101 169.462H234.099L234.098 169.462L234.096 169.462C234.052 169.464 233.782 169.48 232.991 169.638C232.119 169.812 231.81 170.312 231.81 170.312C231.79 170.384 231.784 170.461 231.799 170.542L231.805 170.571C231.018 170.061 230.302 169.498 229.609 168.897L229.642 168.904C230.034 168.987 230.434 169.03 230.84 169.049C231.059 169.06 231.282 169.064 231.507 169.059C232.298 169.044 233.116 168.941 233.885 168.769C234.019 168.739 234.151 168.708 234.281 168.674V168.674C234.125 168.538 233.964 168.404 233.798 168.274C233.546 168.078 233.283 167.892 233.009 167.721C232.64 167.492 232.252 167.292 231.849 167.137C231.546 167.021 231.236 166.93 230.917 166.871C230.689 166.831 230.462 166.788 230.232 166.753H230.231H230.231H230.23H230.229H230.228L230.225 166.753C230.179 166.747 229.89 166.724 229.025 166.772C228.342 166.81 227.94 167.069 227.768 167.213C227.137 166.619 226.487 166.01 225.782 165.396C226.097 165.472 226.416 165.529 226.74 165.575C227.013 165.614 227.291 165.643 227.573 165.664C228.561 165.738 229.594 165.704 230.575 165.579C230.745 165.558 230.914 165.534 231.08 165.507V165.506C230.902 165.319 230.716 165.133 230.523 164.952C230.232 164.678 229.925 164.414 229.603 164.168C229.169 163.84 228.708 163.546 228.223 163.305C227.859 163.124 227.481 162.975 227.09 162.864C226.811 162.786 226.532 162.706 226.249 162.636L226.248 162.637L226.246 162.636L226.245 162.636H226.243L226.24 162.635C226.182 162.624 225.824 162.561 224.74 162.52C223.544 162.475 222.982 163.031 222.982 163.031C222.955 163.078 222.934 163.129 222.919 163.183C222.161 162.674 221.332 162.173 220.406 161.69C220.249 161.608 220.09 161.528 219.929 161.449C220.03 161.436 220.13 161.423 220.23 161.408C220.542 161.362 220.856 161.304 221.172 161.236C222.279 160.996 223.4 160.625 224.434 160.17C224.613 160.092 224.79 160.011 224.964 159.927L224.964 159.927C224.708 159.779 224.444 159.635 224.174 159.499C223.766 159.293 223.344 159.103 222.912 158.939C222.33 158.719 221.729 158.546 221.12 158.44C220.663 158.36 220.201 158.319 219.735 158.323C219.405 158.328 219.074 158.332 218.741 158.347H218.74L218.74 158.347H218.738H218.736L218.734 158.347H218.731C218.663 158.354 218.251 158.402 217.05 158.708C215.724 159.046 215.289 159.837 215.289 159.837L215.278 159.89C214.292 159.707 213.23 159.598 212.077 159.583L212.224 159.499C213.179 158.944 215.913 155.529 216.964 154.33C216.964 154.33 216.093 154.349 215.061 154.387H215.06L215.054 154.388H215.051C214.892 154.399 212.875 154.533 211.502 154.671C208.722 155.17 205.608 156.703 205.309 159.787C206.414 158.078 209.675 156.3 211.742 156.122C211.742 156.122 211.592 156.155 210.895 156.432C210.199 156.711 208.303 157.717 206.836 158.988C206.154 159.579 205.783 160.054 205.581 160.392L205.21 160.484C204.35 160.703 203.158 161.316 201.893 161.921C202.607 161.323 203.123 160.797 203.489 160.373L203.455 160.397C203.767 160.02 204.045 159.632 204.297 159.235L204.297 159.234C205.82 156.83 206.372 154.093 207.76 151.293C201.376 153.079 193.672 156.082 194.281 164.031C195.253 159.785 199.658 156.912 201.197 155.94C201.197 155.94 199.383 157.471 197.53 159.75C195.678 162.029 194.382 165.533 194.382 165.533C194.382 165.533 194.58 165.478 195.404 165.247C195.823 165.13 196.599 164.936 197.651 164.488C199.98 163.918 203.47 162.022 205.471 161.512C207.789 160.922 209.874 160.676 211.755 160.686L211.748 160.692C211.655 160.784 211.593 160.887 211.554 160.996C211.554 160.996 211.5 161.911 212.454 162.919C213.321 163.832 213.649 164.097 213.703 164.139L213.707 164.141L213.708 164.142L213.71 164.143L213.711 164.144H213.711L213.712 164.145C213.989 164.338 214.272 164.521 214.553 164.704C214.949 164.96 215.368 165.175 215.805 165.354C216.386 165.592 216.995 165.769 217.614 165.894C218.074 165.988 218.539 166.054 219.001 166.098C219.306 166.127 219.61 166.147 219.91 166.158H219.911C219.807 165.992 219.699 165.828 219.587 165.662C218.945 164.712 218.184 163.786 217.364 162.982C217.129 162.751 216.89 162.532 216.648 162.324C216.199 161.94 215.733 161.585 215.237 161.282C215.006 161.141 214.767 161.011 214.52 160.895C215.645 161.063 216.684 161.326 217.647 161.658C218.608 161.988 219.487 162.373 220.304 162.797C220.217 162.84 220.146 162.897 220.088 162.964C220.088 162.964 219.742 163.702 220.201 164.85C220.617 165.889 220.802 166.216 220.832 166.268L220.834 166.27L220.836 166.272L220.836 166.274L220.837 166.275H220.837V166.276C221.003 166.527 221.178 166.77 221.35 167.014C221.593 167.356 221.87 167.672 222.172 167.963C222.574 168.351 223.019 168.696 223.49 169.004C223.839 169.232 224.202 169.439 224.57 169.627C224.812 169.752 225.057 169.867 225.301 169.976H225.302C225.271 169.805 225.236 169.633 225.197 169.46C224.979 168.463 224.654 167.447 224.239 166.513C224.121 166.246 223.996 165.986 223.863 165.734C223.649 165.328 223.416 164.934 223.153 164.566C224.335 165.417 225.412 166.33 226.483 167.234C226.419 167.261 226.364 167.3 226.318 167.346C226.318 167.346 226.015 167.89 226.305 168.79C226.566 169.604 226.69 169.864 226.71 169.905L226.712 169.907L226.713 169.909L226.713 169.91L226.714 169.911H226.715V169.911C226.828 170.112 226.947 170.307 227.066 170.502C227.233 170.776 227.427 171.031 227.642 171.27C227.929 171.586 228.25 171.874 228.593 172.133C228.847 172.326 229.113 172.503 229.383 172.667C229.562 172.774 229.743 172.875 229.923 172.971H229.924C229.909 172.839 229.891 172.706 229.871 172.571C229.758 171.8 229.563 171.008 229.297 170.273C229.22 170.063 229.139 169.858 229.051 169.659C228.97 169.476 228.885 169.296 228.793 169.121C229.298 169.508 229.816 169.883 230.357 170.241L230.326 170.246C230.271 170.259 230.219 170.279 230.17 170.309C230.11 170.344 230.066 170.39 230.032 170.442C230.032 170.442 229.891 170.908 230.26 171.547C230.595 172.126 230.732 172.303 230.755 172.332L230.756 172.333L230.757 172.334L230.758 172.335L230.758 172.335C230.879 172.47 231.002 172.6 231.125 172.729C231.298 172.911 231.488 173.074 231.691 173.22C231.962 173.415 232.256 173.581 232.56 173.723C232.786 173.828 233.018 173.919 233.252 173.999C233.406 174.052 233.561 174.1 233.714 174.143H233.715C233.681 174.044 233.646 173.946 233.609 173.846C233.394 173.275 233.115 172.703 232.79 172.186C232.698 172.038 232.601 171.895 232.501 171.757C232.383 171.594 232.258 171.436 232.126 171.286C233.036 171.757 234.02 172.171 235.11 172.501C235.04 172.522 234.976 172.551 234.92 172.591C234.879 172.621 234.843 172.655 234.812 172.698C234.776 172.749 234.754 172.803 234.745 172.859C234.745 172.859 234.795 173.296 235.33 173.695C235.815 174.057 235.993 174.155 236.022 174.171L236.023 174.171L236.024 174.172L236.025 174.173L236.026 174.173C236.174 174.242 236.322 174.304 236.471 174.369C236.68 174.458 236.896 174.525 237.117 174.574C237.413 174.639 237.716 174.672 238.019 174.682C238.245 174.688 238.471 174.681 238.693 174.664C238.841 174.653 238.986 174.637 239.129 174.618H239.13C239.067 174.548 239.003 174.478 238.935 174.409C238.554 174.011 238.116 173.636 237.662 173.321C237.532 173.232 237.401 173.147 237.268 173.068L237.133 172.99C238.393 173.222 239.787 173.353 241.348 173.357C241.351 173.383 241.356 173.408 241.363 173.432C241.363 173.432 241.605 173.801 242.263 173.917C242.859 174.02 243.062 174.029 243.095 174.029ZM173.64 164.139L173.638 164.141L173.636 164.142L173.634 164.143L173.633 164.144V164.144L173.632 164.145C173.355 164.338 173.072 164.521 172.791 164.704C172.395 164.96 171.975 165.175 171.539 165.354C170.958 165.592 170.349 165.769 169.73 165.894C169.27 165.988 168.805 166.054 168.343 166.098C168.037 166.127 167.734 166.147 167.434 166.158H167.433C167.537 165.992 167.646 165.827 167.757 165.662C168.399 164.712 169.16 163.786 169.98 162.982C170.215 162.751 170.454 162.532 170.696 162.324C171.145 161.94 171.611 161.585 172.107 161.282C172.339 161.141 172.577 161.011 172.823 160.895C171.699 161.063 170.66 161.326 169.697 161.658C168.736 161.988 167.857 162.373 167.04 162.796C167.127 162.84 167.198 162.897 167.256 162.964C167.256 162.964 167.602 163.702 167.143 164.85C166.727 165.89 166.542 166.216 166.511 166.268L166.51 166.27L166.509 166.272L166.507 166.274L166.507 166.275L166.507 166.275L166.506 166.276C166.34 166.527 166.167 166.77 165.995 167.014C165.751 167.356 165.474 167.672 165.173 167.963C164.771 168.351 164.324 168.697 163.855 169.004C163.504 169.232 163.141 169.439 162.774 169.627C162.531 169.752 162.286 169.867 162.042 169.976H162.042C162.073 169.805 162.108 169.633 162.147 169.46C162.365 168.463 162.69 167.448 163.104 166.513C163.223 166.246 163.348 165.986 163.48 165.734C163.696 165.325 163.929 164.932 164.194 164.561C163.01 165.414 161.932 166.328 160.859 167.233C160.924 167.261 160.98 167.299 161.026 167.345C161.026 167.345 161.329 167.89 161.04 168.79C160.777 169.605 160.654 169.864 160.633 169.905L160.631 169.907L160.631 169.909L160.63 169.91L160.63 169.911H160.63V169.912C160.517 170.112 160.396 170.307 160.278 170.502C160.111 170.776 159.916 171.031 159.701 171.27C159.416 171.586 159.094 171.874 158.751 172.133C158.497 172.326 158.231 172.503 157.961 172.666C157.782 172.774 157.601 172.875 157.421 172.97H157.42C157.435 172.839 157.453 172.706 157.473 172.571C157.587 171.8 157.781 171.008 158.047 170.273C158.123 170.063 158.205 169.858 158.293 169.659C158.374 169.474 158.461 169.293 158.554 169.115C158.047 169.504 157.527 169.882 156.983 170.24L157.018 170.246C157.073 170.259 157.125 170.279 157.174 170.309C157.234 170.344 157.278 170.39 157.312 170.442C157.312 170.442 157.454 170.908 157.084 171.547C156.749 172.127 156.612 172.303 156.588 172.332L156.588 172.333L156.587 172.334L156.586 172.335L156.586 172.335H156.585V172.336C156.466 172.47 156.343 172.6 156.22 172.729C156.047 172.91 155.856 173.074 155.653 173.22C155.382 173.415 155.088 173.581 154.784 173.723C154.558 173.828 154.326 173.919 154.092 173.999C153.938 174.052 153.783 174.1 153.63 174.143H153.629C153.662 174.044 153.698 173.946 153.736 173.846C153.95 173.275 154.229 172.703 154.554 172.186C154.646 172.038 154.743 171.894 154.842 171.757C154.963 171.591 155.09 171.43 155.224 171.278C154.312 171.752 153.325 172.168 152.229 172.5C152.301 172.52 152.367 172.55 152.424 172.591C152.466 172.621 152.502 172.655 152.532 172.698C152.568 172.749 152.589 172.803 152.599 172.858C152.599 172.858 152.55 173.296 152.014 173.695C151.528 174.058 151.351 174.155 151.322 174.171L151.321 174.171L151.319 174.172L151.319 174.173L151.318 174.173H151.318C151.171 174.242 151.021 174.305 150.873 174.369C150.664 174.458 150.448 174.525 150.226 174.574C149.931 174.639 149.628 174.673 149.325 174.682C149.099 174.688 148.873 174.681 148.65 174.664C148.504 174.653 148.358 174.637 148.215 174.618H148.214C148.277 174.548 148.342 174.478 148.408 174.41C148.791 174.011 149.228 173.636 149.682 173.321C149.812 173.232 149.944 173.147 150.076 173.069L150.216 172.987C148.955 173.221 147.56 173.353 145.996 173.357C145.993 173.383 145.988 173.408 145.98 173.432C145.98 173.432 145.739 173.801 145.081 173.916C144.485 174.02 144.282 174.029 144.249 174.029H144.248H144.247H144.246H144.245H144.245H144.244C144.082 174.024 143.92 174.013 143.759 174.004C143.533 173.989 143.309 173.951 143.09 173.896C142.797 173.821 142.511 173.714 142.236 173.586C142.032 173.49 141.832 173.382 141.642 173.267C141.516 173.19 141.392 173.11 141.274 173.029L141.273 173.029C141.361 172.994 141.45 172.962 141.541 172.93C142.061 172.747 142.621 172.608 143.168 172.532C143.324 172.511 143.48 172.495 143.633 172.484C143.916 172.464 144.198 172.461 144.477 172.486C144.657 172.503 144.837 172.531 145.015 172.575C145.174 172.616 145.394 172.683 145.585 172.786C145.738 172.871 145.873 172.978 145.945 173.115C145.957 173.138 145.968 173.161 145.975 173.186C146.796 173.157 147.56 173.099 148.275 173.016C148.055 172.976 147.836 172.921 147.619 172.854C147.468 172.808 147.317 172.756 147.166 172.699C146.636 172.498 146.11 172.23 145.632 171.928C145.549 171.876 145.467 171.823 145.387 171.768V171.768C145.525 171.714 145.666 171.663 145.81 171.615C146.027 171.544 146.251 171.482 146.476 171.433C146.781 171.368 147.09 171.327 147.4 171.319C147.632 171.314 147.865 171.328 148.094 171.366C148.257 171.393 148.421 171.419 148.584 171.451H148.585H148.585L148.586 171.451L148.587 171.452H148.588L148.589 171.453C148.622 171.46 148.823 171.515 149.395 171.756C150.026 172.022 150.181 172.446 150.181 172.446C150.186 172.503 150.178 172.562 150.154 172.621C150.138 172.662 150.117 172.699 150.091 172.733C151.583 172.433 152.831 172.004 153.926 171.476C153.785 171.499 153.643 171.513 153.501 171.523C153.129 171.549 152.754 171.535 152.377 171.499C152.174 171.48 151.968 171.453 151.761 171.419C151.034 171.302 150.293 171.098 149.606 170.838C149.486 170.792 149.369 170.747 149.253 170.698V170.697C149.415 170.593 149.581 170.491 149.752 170.393C150.009 170.245 150.277 170.107 150.553 169.987C150.923 169.825 151.307 169.691 151.7 169.602C151.994 169.535 152.293 169.492 152.595 169.48C152.81 169.471 153.025 169.462 153.242 169.462H153.242H153.242H153.243H153.245H153.246H153.248C153.292 169.464 153.561 169.48 154.353 169.638C155.225 169.813 155.534 170.312 155.534 170.312C155.554 170.384 155.559 170.46 155.545 170.543L155.54 170.569C156.326 170.059 157.039 169.497 157.731 168.898L157.702 168.904C157.31 168.987 156.91 169.03 156.504 169.049C156.285 169.06 156.062 169.064 155.836 169.059C155.046 169.044 154.228 168.941 153.459 168.769C153.326 168.739 153.193 168.708 153.063 168.674L153.063 168.674C153.219 168.538 153.38 168.404 153.546 168.274C153.798 168.078 154.061 167.892 154.335 167.721C154.704 167.492 155.092 167.292 155.495 167.138C155.797 167.021 156.108 166.93 156.428 166.871C156.655 166.829 156.882 166.788 157.112 166.753H157.112H157.112H157.113H157.115L157.117 166.753L157.119 166.752C157.165 166.747 157.455 166.724 158.318 166.772C159 166.81 159.401 167.068 159.574 167.212C160.206 166.619 160.854 166.01 161.559 165.396C161.246 165.472 160.927 165.529 160.604 165.575C160.332 165.614 160.053 165.643 159.771 165.664C158.783 165.738 157.75 165.704 156.77 165.579C156.599 165.558 156.431 165.534 156.264 165.507V165.506C156.442 165.318 156.628 165.133 156.82 164.952C157.112 164.678 157.419 164.414 157.742 164.168C158.176 163.84 158.635 163.546 159.121 163.305C159.485 163.124 159.863 162.975 160.254 162.864C160.533 162.786 160.812 162.706 161.095 162.637H161.096L161.097 162.636L161.099 162.636H161.101L161.104 162.635C161.161 162.624 161.52 162.561 162.604 162.52C163.801 162.475 164.362 163.031 164.362 163.031C164.389 163.078 164.41 163.129 164.424 163.183C165.182 162.674 166.013 162.173 166.938 161.69C167.095 161.608 167.254 161.528 167.415 161.449C167.315 161.435 167.214 161.422 167.114 161.407C166.803 161.362 166.488 161.304 166.171 161.236C165.066 160.996 163.944 160.625 162.91 160.17C162.731 160.091 162.553 160.011 162.38 159.927L162.38 159.926C162.636 159.778 162.9 159.635 163.17 159.499C163.578 159.293 164 159.103 164.432 158.94C165.015 158.719 165.614 158.546 166.224 158.44C166.681 158.36 167.144 158.318 167.609 158.323C167.94 158.328 168.271 158.332 168.603 158.347H168.604H168.604H168.605L168.608 158.347H168.61H168.613C168.68 158.354 169.093 158.402 170.295 158.708C171.62 159.046 172.055 159.837 172.055 159.837L172.066 159.891C173.052 159.708 174.114 159.598 175.267 159.584L175.119 159.499C174.166 158.944 171.431 155.529 170.38 154.33C170.38 154.33 171.251 154.349 172.283 154.388H172.284L172.289 154.388H172.293C172.452 154.399 174.469 154.533 175.842 154.671C178.621 155.17 181.736 156.703 182.035 159.787C180.93 158.078 177.669 156.3 175.602 156.122C175.602 156.122 175.752 156.155 176.448 156.432C177.145 156.711 179.041 157.717 180.508 158.988C181.191 159.579 181.562 160.054 181.764 160.393L182.134 160.484C182.994 160.703 184.185 161.316 185.45 161.921C184.736 161.323 184.221 160.797 183.854 160.373L183.889 160.397C183.577 160.02 183.298 159.632 183.047 159.235L183.047 159.234C181.524 156.83 180.972 154.093 179.585 151.293C185.968 153.079 193.672 156.082 193.063 164.031C192.091 159.785 187.686 156.912 186.147 155.94C186.147 155.94 187.96 157.471 189.814 159.75C191.666 162.029 192.963 165.533 192.963 165.533C192.963 165.533 192.765 165.478 191.939 165.247C191.522 165.13 190.744 164.936 189.692 164.487C187.364 163.918 183.873 162.022 181.873 161.512C179.556 160.922 177.47 160.676 175.589 160.686L175.596 160.692C175.689 160.784 175.751 160.887 175.789 160.996C175.789 160.996 175.844 161.911 174.889 162.919C174.023 163.832 173.695 164.097 173.64 164.139Z" fill="#C4C2C2"></path><path d="M194.737 198.653C198.746 196.966 205.25 196.645 208.789 199.385L218.978 172.404C218.87 172.342 218.093 172.12 218.025 172.148C216.701 176.047 210.561 191.857 208.363 198.198C204.469 196.216 197.177 196.418 194.737 198.653ZM194.681 197.156C192.075 195.359 187.06 194.463 181.813 195.977L171.644 168.709C173.061 167.974 185.179 167.585 193.811 172.063L194.681 181.647L195.549 172.063C204.183 167.585 216.3 167.974 217.717 168.709L207.548 195.977C202.301 194.463 197.286 195.359 194.681 197.156ZM194.624 198.653C190.615 196.966 184.11 196.645 180.572 199.385L170.383 172.404C170.492 172.342 171.269 172.12 171.337 172.148C172.66 176.047 178.8 191.857 180.998 198.198C184.892 196.216 192.184 196.418 194.624 198.653Z" fill="#C4C2C2"></path><path d="M184.599 177.674L182.604 177.241L182.457 175.66L187.915 175.151L189.163 188.53L190.677 189.399L190.795 190.661L184.4 191.257L184.283 189.995L185.642 188.859L184.599 177.674ZM182.846 177.026L184.841 177.46L185.915 188.97L184.555 190.106L184.636 190.974L190.511 190.426L190.43 189.557L188.916 188.689L187.679 175.435L182.741 175.896L182.846 177.026Z" fill="#C4C2C2"></path><path d="M204.06 174.429C205.797 174.595 207.133 175.304 207.979 176.577C208.769 177.766 209.104 179.426 208.905 181.568L208.528 185.627C208.328 187.783 207.694 189.357 206.701 190.379C205.634 191.476 204.189 191.92 202.451 191.754C200.754 191.592 199.454 190.788 198.615 189.519C197.784 188.26 197.426 186.553 197.609 184.582L197.986 180.524C198.168 178.568 198.835 176.964 199.886 175.888C200.942 174.808 202.366 174.266 204.06 174.429Z" fill="#C4C2C2"></path><path d="M201.553 188.156C201.278 187.232 201.371 186.206 201.468 185.169L201.837 181.178C201.934 180.14 202.043 178.965 202.484 178.11C202.891 177.318 203.038 176.883 203.894 176.965C204.882 177.06 204.715 177.634 204.92 178.415C205.098 179.245 205.12 180.107 205.021 181.17L204.636 185.402C204.511 186.746 204.611 189.112 202.714 188.93C202.137 188.875 201.807 189.012 201.553 188.156Z" fill="#C4C2C2"></path><path d="M201.98 185.072C201.893 186.009 201.877 187.11 202.126 187.87C202.254 188.263 202.451 188.54 202.745 188.568C203.131 188.605 203.408 188.322 203.614 187.863C203.9 187.223 204.048 186.283 204.141 185.279L204.532 181.079C204.623 180.091 204.651 179.14 204.488 178.453C204.37 177.957 204.151 177.62 203.766 177.582C203.471 177.554 203.227 177.789 203.028 178.151C202.644 178.85 202.457 179.935 202.37 180.872L201.98 185.072Z" fill="#C4C2C2"></path><path fill-rule="evenodd" clip-rule="evenodd" d="M87.4297 350.322H306.091V379.602H87.4297V350.322Z" fill="#C4C2C2" stroke="#282829" stroke-width="0.566929" stroke-miterlimit="22.9256"></path><path d="M92.6094 350.553L92.6491 379.398" stroke="#282829" stroke-width="0.639874" stroke-miterlimit="22.9256"></path><path d="M96.9531 350.442L96.9924 379.287" stroke="#282829" stroke-width="0.639874" stroke-miterlimit="22.9256"></path><path d="M101.684 350.322L101.723 379.167" stroke="#282829" stroke-width="0.639874" stroke-miterlimit="22.9256"></path><path d="M106.383 350.388L106.422 379.232" stroke="#282829" stroke-width="0.639874" stroke-miterlimit="22.9256"></path><path d="M110.906 350.553L110.946 379.398" stroke="#282829" stroke-width="0.639874" stroke-miterlimit="22.9256"></path><path d="M115.25 350.442L115.289 379.287" stroke="#282829" stroke-width="0.639874" stroke-miterlimit="22.9256"></path><path d="M119.762 350.322L119.801 379.167" stroke="#282829" stroke-width="0.639874" stroke-miterlimit="22.9256"></path><path d="M124.457 350.388L124.497 379.232" stroke="#282829" stroke-width="0.639874" stroke-miterlimit="22.9256"></path><path d="M128.984 350.553L129.024 379.398" stroke="#282829" stroke-width="0.639874" stroke-miterlimit="22.9256"></path><path d="M133.328 350.442L133.368 379.287" stroke="#282829" stroke-width="0.639874" stroke-miterlimit="22.9256"></path><path d="M137.926 350.322L137.965 379.167" stroke="#282829" stroke-width="0.639874" stroke-miterlimit="22.9256"></path><path d="M142.621 350.388L142.66 379.232" stroke="#282829" stroke-width="0.639874" stroke-miterlimit="22.9256"></path><path d="M147.148 350.553L147.188 379.398" stroke="#282829" stroke-width="0.639874" stroke-miterlimit="22.9256"></path><path d="M151.492 350.442L151.532 379.287" stroke="#282829" stroke-width="0.639874" stroke-miterlimit="22.9256"></path><path d="M156.223 350.322L156.262 379.167" stroke="#282829" stroke-width="0.639874" stroke-miterlimit="22.9256"></path><path d="M160.922 350.388L160.961 379.232" stroke="#282829" stroke-width="0.639874" stroke-miterlimit="22.9256"></path><path d="M165.445 350.553L165.484 379.398" stroke="#282829" stroke-width="0.639874" stroke-miterlimit="22.9256"></path><path d="M169.793 350.442L169.832 379.287" stroke="#282829" stroke-width="0.639874" stroke-miterlimit="22.9256"></path><path d="M174.301 350.322L174.34 379.167" stroke="#282829" stroke-width="0.639874" stroke-miterlimit="22.9256"></path><path d="M179 350.388L179.039 379.232" stroke="#282829" stroke-width="0.639874" stroke-miterlimit="22.9256"></path><path d="M183.523 350.553L183.563 379.398" stroke="#282829" stroke-width="0.639874" stroke-miterlimit="22.9256"></path><path d="M187.867 350.442L187.907 379.287" stroke="#282829" stroke-width="0.639874" stroke-miterlimit="22.9256"></path><path d="M192.07 350.322L192.11 379.167" stroke="#282829" stroke-width="0.639874" stroke-miterlimit="22.9256"></path><path d="M196.77 350.388L196.809 379.232" stroke="#282829" stroke-width="0.639874" stroke-miterlimit="22.9256"></path><path d="M201.297 350.553L201.337 379.398" stroke="#282829" stroke-width="0.639874" stroke-miterlimit="22.9256"></path><path d="M205.641 350.442L205.68 379.287" stroke="#282829" stroke-width="0.639874" stroke-miterlimit="22.9256"></path><path d="M210.371 350.322L210.411 379.167" stroke="#282829" stroke-width="0.639874" stroke-miterlimit="22.9256"></path><path d="M215.07 350.388L215.11 379.232" stroke="#282829" stroke-width="0.639874" stroke-miterlimit="22.9256"></path><path d="M219.594 350.553L219.633 379.398" stroke="#282829" stroke-width="0.639874" stroke-miterlimit="22.9256"></path><path d="M223.938 350.442L223.977 379.287" stroke="#282829" stroke-width="0.639874" stroke-miterlimit="22.9256"></path><path d="M228.449 350.322L228.489 379.167" stroke="#282829" stroke-width="0.639874" stroke-miterlimit="22.9256"></path><path d="M233.145 350.388L233.184 379.232" stroke="#282829" stroke-width="0.639874" stroke-miterlimit="22.9256"></path><path d="M237.672 350.553L237.711 379.398" stroke="#282829" stroke-width="0.639874" stroke-miterlimit="22.9256"></path><path d="M242.016 350.442L242.055 379.287" stroke="#282829" stroke-width="0.639874" stroke-miterlimit="22.9256"></path><path d="M246.23 350.444L246.27 379.752" stroke="#282829" stroke-width="0.639874" stroke-miterlimit="22.9256"></path><path d="M250.738 350.322L250.777 379.631" stroke="#282829" stroke-width="0.639874" stroke-miterlimit="22.9256"></path><path d="M255.438 350.389L255.477 379.698" stroke="#282829" stroke-width="0.639874" stroke-miterlimit="22.9256"></path><path d="M259.961 350.557L260.001 379.865" stroke="#282829" stroke-width="0.639874" stroke-miterlimit="22.9256"></path><path d="M264.309 350.444L264.347 379.752" stroke="#282829" stroke-width="0.639874" stroke-miterlimit="22.9256"></path><path d="M268.902 350.322L268.941 379.631" stroke="#282829" stroke-width="0.639874" stroke-miterlimit="22.9256"></path><path d="M273.602 350.389L273.641 379.698" stroke="#282829" stroke-width="0.639874" stroke-miterlimit="22.9256"></path><path d="M278.125 350.557L278.164 379.865" stroke="#282829" stroke-width="0.639874" stroke-miterlimit="22.9256"></path><path d="M282.473 350.444L282.512 379.752" stroke="#282829" stroke-width="0.639874" stroke-miterlimit="22.9256"></path><path d="M287.203 350.79L287.242 379.635" stroke="#282829" stroke-width="0.639874" stroke-miterlimit="22.9256"></path><path d="M291.898 350.322L291.938 379.7" stroke="#282829" stroke-width="0.639874" stroke-miterlimit="22.9256"></path><path d="M296.426 350.322L296.465 379.865" stroke="#282829" stroke-width="0.639874" stroke-miterlimit="22.9256"></path><path d="M300.77 350.322L300.809 379.755" stroke="#282829" stroke-width="0.639874" stroke-miterlimit="22.9256"></path><path d="M107.65 350.465C78.5306 318.128 98.4075 288.479 98.4075 322.416" stroke="#282829" stroke-width="0.320126" stroke-miterlimit="22.9256"></path><path d="M143.937 350.549C118.862 330.919 131.228 315.222 137.426 333.579" stroke="#282829" stroke-width="0.320126" stroke-miterlimit="22.9256"></path><path d="M167.661 350.389C167.209 349.316 150.671 331.395 159.469 331.876C161.755 332.001 163.842 338.112 164.798 340.182" stroke="#282829" stroke-width="0.320126" stroke-miterlimit="22.9256"></path><path d="M283.98 350.623C313.099 318.286 293.223 288.638 293.223 322.574" stroke="#282829" stroke-width="0.320126" stroke-miterlimit="22.9256"></path><path d="M247.914 350.636C272.989 331.006 260.623 315.309 254.425 333.666" stroke="#282829" stroke-width="0.320126" stroke-miterlimit="22.9256"></path><path d="M223.836 350.733C224.288 349.659 240.826 331.739 232.028 332.219C229.741 332.345 227.655 338.455 226.699 340.525" stroke="#282829" stroke-width="0.320126" stroke-miterlimit="22.9256"></path><path d="M8.58634 354.817L6.03516 384.596" stroke="#282829" stroke-width="0.63874" stroke-miterlimit="22.9256"></path><path d="M13.1723 355.999L10.6211 385.832" stroke="#282829" stroke-width="0.63874" stroke-miterlimit="22.9256"></path><path d="M17.8481 356.523L15.2969 386.946" stroke="#282829" stroke-width="0.63874" stroke-miterlimit="22.9256"></path><path d="M22.3402 357.139L19.7891 387.772" stroke="#282829" stroke-width="0.63874" stroke-miterlimit="22.9256"></path><path d="M26.6762 357.44L24.125 388.399" stroke="#282829" stroke-width="0.63874" stroke-miterlimit="22.9256"></path><path d="M31.3985 357.769L28.8477 388.728" stroke="#282829" stroke-width="0.63874" stroke-miterlimit="22.9256"></path><path d="M36.0703 358.295L33.5195 388.375" stroke="#282829" stroke-width="0.63874" stroke-miterlimit="22.9256"></path><path d="M40.5629 357.704L38.0117 388.078" stroke="#282829" stroke-width="0.63874" stroke-miterlimit="22.9256"></path><path d="M44.8992 357.547L42.3477 387.664" stroke="#282829" stroke-width="0.63874" stroke-miterlimit="22.9256"></path><path d="M385.34 354.817L387.891 383.954" stroke="#282829" stroke-width="0.63874" stroke-miterlimit="22.9256"></path><path d="M380.75 355.66L383.301 385.277" stroke="#282829" stroke-width="0.63874" stroke-miterlimit="22.9256"></path><path d="M376.078 356.523L378.629 386.366" stroke="#282829" stroke-width="0.63874" stroke-miterlimit="22.9256"></path><path d="M371.586 357.139L374.138 387.181" stroke="#282829" stroke-width="0.63874" stroke-miterlimit="22.9256"></path><path d="M367.246 357.44L369.797 387.675" stroke="#282829" stroke-width="0.63874" stroke-miterlimit="22.9256"></path><path d="M362.527 357.357L365.078 388.208" stroke="#282829" stroke-width="0.63874" stroke-miterlimit="22.9256"></path><path d="M357.758 357.189L360.309 387.772" stroke="#282829" stroke-width="0.63874" stroke-miterlimit="22.9256"></path><path d="M353.324 357.279L355.875 387.654" stroke="#282829" stroke-width="0.63874" stroke-miterlimit="22.9256"></path><path d="M348.977 357.003L351.528 387.12" stroke="#282829" stroke-width="0.63874" stroke-miterlimit="22.9256"></path><path fill-rule="evenodd" clip-rule="evenodd" d="M365.946 187.922L361.965 173.791L308.953 174.592L309.035 189.089L365.946 187.922Z" fill="#B8B6B6" stroke="#282829" stroke-width="0.566929" stroke-miterlimit="22.9256"></path><path d="M361.847 174.795L308.48 175.689" stroke="#282829" stroke-width="0.566929" stroke-miterlimit="22.9256" stroke-dasharray="3.2 3.2"></path><path d="M365.394 187.179L309.008 188.073" stroke="#282829" stroke-width="0.566929" stroke-miterlimit="22.9256" stroke-dasharray="3.2 3.2"></path><path fill-rule="evenodd" clip-rule="evenodd" d="M375.382 225.03L371.859 210.864L309.293 211.607L310.91 226.222L375.382 225.03Z" fill="#B8B6B6" stroke="#282829" stroke-width="0.566929" stroke-miterlimit="22.9256"></path><path d="M371.199 211.895L308.758 212.656" stroke="#282829" stroke-width="0.566929" stroke-miterlimit="22.9256" stroke-dasharray="3.2 3.2"></path><path d="M375.218 224.279L310.148 225.245" stroke="#282829" stroke-width="0.566929" stroke-miterlimit="22.9256" stroke-dasharray="3.2 3.2"></path><path fill-rule="evenodd" clip-rule="evenodd" d="M201.298 107.793L188.345 34.0908C184.403 36.6337 180.026 40.3898 177.84 44.054L186.569 107.793H201.298Z" fill="#B8B6B6" stroke="#282829" stroke-width="0.566929" stroke-miterlimit="22.9256"></path><path fill-rule="evenodd" clip-rule="evenodd" d="M186.492 107.793L199.935 34.0234C203.878 36.5663 208.433 40.7718 210.564 44.5063L201.296 107.793H186.492Z" fill="#C4C2C2" stroke="#282829" stroke-width="0.566929" stroke-miterlimit="22.9256"></path><path fill-rule="evenodd" clip-rule="evenodd" d="M188.001 66.9307C189.589 66.9307 190.876 68.2716 190.876 69.9267C190.876 71.581 189.589 72.9212 188.001 72.9212C186.413 72.9212 185.125 71.581 185.125 69.9267C185.125 68.2716 186.413 66.9307 188.001 66.9307Z" fill="#B8B6B6" stroke="#282829" stroke-width="0.566929" stroke-miterlimit="22.9256"></path><path fill-rule="evenodd" clip-rule="evenodd" d="M147.047 0.490234C178.69 7.78397 210.162 7.32589 241.514 0.490234L231.735 13.6547C204.869 20.8778 184.306 20.4295 156.663 13.4563L147.047 0.490234Z" fill="#A3A1A1" stroke="#282829" stroke-width="0.566929" stroke-miterlimit="22.9256"></path><path d="M202.741 72.3476L197.578 71.4072" stroke="#282829" stroke-width="0.755906" stroke-miterlimit="22.9256"></path><path d="M199.088 95.2906L193.926 94.3506" stroke="#282829" stroke-width="0.755906" stroke-miterlimit="22.9256"></path><path d="M175.645 47.3947L183.839 110.203L203.153 110.246L212.111 47.0605" stroke="#282829" stroke-width="0.755906" stroke-miterlimit="22.9256" stroke-dasharray="3.2 3.2"></path><path d="M228.32 17.5402C229.068 17.3777 229.068 17.3777 229.068 17.3777C229.068 17.3777 229.068 17.3777 229.511 16.6626C229.936 15.9471 230.615 14.4912 231.068 13.7735C231.512 13.0562 231.434 13.0539 231.478 12.9658C231.288 13.0728 231.714 13.0853 230.835 13.3302C229.954 13.5732 227.632 14.1004 225.181 14.6284C222.732 15.1549 219.59 15.7219 216.087 16.2207C212.583 16.7196 208.717 17.1505 204.727 17.4385C200.738 17.728 196.622 17.8762 192.973 17.8996C189.318 17.9223 186.131 17.8195 183.009 17.6252C179.889 17.4328 176.833 17.1471 173.42 16.6856C170.009 16.2253 166.233 15.5892 163.294 14.9811C160.355 14.3726 158.248 13.7947 157.193 13.5044C156.143 13.2153 156.212 13.1495 156.212 13.1495C156.212 13.1495 156.212 13.1495 156.559 13.888C156.978 14.5615 157.815 15.9048 158.234 16.5783C158.65 17.2518 158.65 17.2518 158.65 17.2518C158.65 17.2518 158.65 17.2518 159.951 17.5315C161.248 17.8127 163.844 18.3732 166.327 18.8475C168.81 19.3241 171.178 19.7119 173.94 20.0645C176.699 20.4183 179.852 20.7358 183.053 20.9387C186.253 21.1409 189.496 21.2271 192.941 21.2003C196.383 21.1723 200.021 21.0325 203.58 20.7981C207.135 20.5661 210.613 20.2395 214.007 19.8211C217.401 19.4027 220.711 18.894 223.115 18.4775C225.519 18.0614 227.576 17.7004 228.32 17.5402Z" fill="#A3A1A1" stroke="#282829" stroke-width="0.566929" stroke-miterlimit="22.9256"></path><path fill-rule="evenodd" clip-rule="evenodd" d="M184.496 41.9805C186.084 41.9805 187.372 43.3218 187.372 44.9754C187.372 46.63 186.084 47.971 184.496 47.971C182.908 47.971 181.621 46.63 181.621 44.9754C181.621 43.3218 182.908 41.9805 184.496 41.9805Z" fill="#B8B6B6" stroke="#282829" stroke-width="0.566929" stroke-miterlimit="22.9256"></path><path fill-rule="evenodd" clip-rule="evenodd" d="M188.346 34.0914C166.942 28.8038 157.848 15.7652 147.046 0.490234L139.234 11.4834C146.659 28.4897 157.468 46.2444 171.084 55.9219C176.657 46.6129 180.249 39.0792 188.346 34.0914Z" fill="#C4C2C2" stroke="#282829" stroke-width="0.566929" stroke-miterlimit="22.9256"></path><path d="M185.673 33.8655C178.813 38.8318 173.431 45.7052 169.994 53.3773C156.239 40.9782 147.593 25.7693 140.402 9.88965" stroke="#282829" stroke-width="0.755906" stroke-miterlimit="22.9256" stroke-dasharray="3.2 3.2"></path><path fill-rule="evenodd" clip-rule="evenodd" d="M200.215 34.0914C221.618 28.8038 230.712 15.7652 241.514 0.490234L249.326 11.4834C241.902 28.4897 231.092 46.2444 217.476 55.9219C211.903 46.6129 208.311 39.0792 200.215 34.0914Z" fill="#C4C2C2" stroke="#282829" stroke-width="0.566929" stroke-miterlimit="22.9256"></path><path d="M206.6 47.0397L201.438 46.0986" stroke="#282829" stroke-width="0.755906" stroke-miterlimit="22.9256"></path><path d="M202.574 33.3936C209.434 38.3595 214.816 45.2333 218.252 52.9046C232.008 40.5059 240.654 25.2974 247.844 9.41699" stroke="#282829" stroke-width="0.755906" stroke-miterlimit="22.9256" stroke-dasharray="3.2 3.2"></path></svg> 