<?xml version="1.0" encoding="UTF-8"?> <svg xmlns="http://www.w3.org/2000/svg" width="318" height="389" viewBox="0 0 318 389" fill="none"><path fill-rule="evenodd" clip-rule="evenodd" d="M68.6963 326.632L68.5859 352.974C131.759 367.512 191.714 365.682 249.404 352.344V326.101C190.012 335.106 129.801 335.549 68.6963 326.632Z" fill="#C4C2C2" stroke="#282829" stroke-width="0.755906" stroke-miterlimit="22.9256"></path><path fill-rule="evenodd" clip-rule="evenodd" d="M139.464 3.51366C153.277 -0.26095 164.979 -0.372448 177.445 3.85231L215.919 38.7895C177.812 78.9183 141.996 79.3782 103.406 40.4759L139.464 3.51366Z" fill="#B8B6B6" stroke="#282829" stroke-width="0.755906" stroke-miterlimit="22.9256"></path><path fill-rule="evenodd" clip-rule="evenodd" d="M50.1875 55.0426C54.7861 71.2776 58.0002 89.1736 59.5377 109.082L58.9163 308.167C58.2167 320.73 61.3416 323.203 68.9513 326.25C128.918 335.574 189.109 334.97 249.572 325.897C257.741 323.955 259.359 317.283 259.396 308.496L258.963 109.248L267.673 55.2002C249.99 48.1673 232.456 40.8097 214.077 36.9512C180.679 74.9139 144.606 81.6373 104.849 37.0887C85.8307 41.3445 67.4554 46.9945 50.1875 55.0426Z" fill="#C4C2C2" stroke="#282829" stroke-width="0.755906" stroke-miterlimit="22.9256"></path><path fill-rule="evenodd" clip-rule="evenodd" d="M135.465 28.75C150.866 24.7747 166.034 25.0053 180.975 29.3464C182.303 21.1524 181.328 11.6042 177.536 4.0527C166.145 -0.404494 153.064 -1.13583 139.136 3.68836C135.476 11.0633 134.334 20.7537 135.465 28.75Z" fill="#B8B6B6" stroke="#282829" stroke-width="0.755906" stroke-miterlimit="22.9256"></path><path fill-rule="evenodd" clip-rule="evenodd" d="M139.357 3.63184C130.095 7.04324 125.68 17.0261 118.843 22.2547C112.658 26.9848 105.932 27.6617 100.286 33.5105L92.0898 54.8803C111.177 48.9185 137.984 49.3142 157.07 67.1241C156.658 65.2139 156.191 64.983 155.558 64.2146C138.147 43.0886 129.661 21.5872 139.357 3.63184Z" fill="#C4C2C2" stroke="#282829" stroke-width="0.755906" stroke-miterlimit="22.9256"></path><path d="M158.007 99.8464L158.399 68.2076C137.762 49.494 114.986 48.1254 91.6719 55.5106" stroke="#282829" stroke-width="0.944882" stroke-miterlimit="22.9256"></path><path fill-rule="evenodd" clip-rule="evenodd" d="M177.405 3.90039C186.667 7.31179 191.082 17.1155 197.919 22.3441C204.104 27.0734 210.83 27.7503 216.477 33.5995L224.672 54.9686C205.585 49.0072 178.778 49.4029 159.691 67.2131C160.104 65.303 160.572 65.0717 161.205 64.3037C178.615 43.1784 187.101 21.8558 177.405 3.90039Z" fill="#C4C2C2" stroke="#282829" stroke-width="0.755906" stroke-miterlimit="22.9256"></path><path fill-rule="evenodd" clip-rule="evenodd" d="M50.1891 55.1055C55.0999 72.4221 57.6665 90.5782 59.6848 109.34L59.0147 187.449C54.4936 266.935 55.2552 270.485 42.2555 355.397C41.929 357.53 41.4025 358.622 40.5971 359.419C29.7589 362.414 12.3466 360.418 1.69665 357.423C0.898415 356.274 0.358699 354.217 0.379486 352.812C1.89923 250.434 13.1622 154.051 46.0914 62.0768C46.8359 59.9973 48.387 56.7091 50.1891 55.1055Z" fill="#C4C2C2" stroke="#282829" stroke-width="0.755906" stroke-miterlimit="22.9256"></path><path d="M59.7877 110.593L59.2227 86.3682" stroke="#282829" stroke-width="0.639874" stroke-miterlimit="22.9256"></path><path fill-rule="evenodd" clip-rule="evenodd" d="M267.437 55.1055C262.526 72.4221 259.96 90.5782 257.941 109.34L258.612 187.449C263.133 266.935 262.371 270.485 275.371 355.397C275.697 357.53 276.224 358.622 277.029 359.419C287.867 362.414 305.28 360.418 315.929 357.423C316.727 356.274 317.268 354.217 317.247 352.812C315.727 250.434 304.464 154.051 271.535 62.0768C270.79 59.9973 269.268 56.0636 267.437 55.1055Z" fill="#C4C2C2" stroke="#282829" stroke-width="0.755906" stroke-miterlimit="22.9256"></path><path d="M257.836 110.593L258.401 86.3682" stroke="#282829" stroke-width="0.639874" stroke-miterlimit="22.9256"></path><path d="M79.8655 327.869C58.3842 295.378 79.4671 271.238 75.2545 301.629" stroke="#282829" stroke-width="0.320126" stroke-miterlimit="22.9256"></path><path d="M105.681 331.086C86.1639 310.464 98.9388 297.908 102.087 315.099" stroke="#282829" stroke-width="0.320126" stroke-miterlimit="22.9256"></path><path d="M131.248 332.542C130.985 331.525 118.73 313.471 126.373 314.969C128.36 315.358 129.428 321.083 130.008 323.053" stroke="#282829" stroke-width="0.320126" stroke-miterlimit="22.9256"></path><path d="M236.199 327.869C257.681 295.378 236.598 271.238 240.81 301.629" stroke="#282829" stroke-width="0.320126" stroke-miterlimit="22.9256"></path><path d="M210.387 331.086C229.904 310.464 217.129 297.908 213.981 315.099" stroke="#282829" stroke-width="0.320126" stroke-miterlimit="22.9256"></path><path d="M184.82 332.542C185.083 331.525 197.338 313.471 189.696 314.969C187.709 315.358 186.64 321.083 186.06 323.053" stroke="#282829" stroke-width="0.320126" stroke-miterlimit="22.9256"></path><path d="M153.608 67.8561L153.262 102.432L162.784 102.412L162.875 67.748" stroke="#282829" stroke-width="0.755906" stroke-miterlimit="22.9256" stroke-dasharray="3.2 3.2"></path><path d="M156.448 68.0305L156.023 99.7075L160.143 99.7369L160.459 67.623" stroke="#282829" stroke-width="0.755906" stroke-miterlimit="22.9256"></path><path fill-rule="evenodd" clip-rule="evenodd" d="M136.23 28.7704L136.805 31.435C151.15 27.2322 165.712 27.7337 179.768 32.1221L180.318 29.32C165.156 25.0344 150.235 24.8703 136.23 28.7704Z" fill="#B8B6B6" stroke="#282829" stroke-width="0.755906" stroke-miterlimit="22.9256"></path><path fill-rule="evenodd" clip-rule="evenodd" d="M1.72266 357.245L1.84663 384.527C12.7955 387.422 24.8802 388.394 36.881 386.899L40.7402 359.384C27.7538 360.218 14.7488 359.728 1.72266 357.245Z" fill="#C4C2C2" stroke="#282829" stroke-width="0.639874" stroke-miterlimit="22.9256"></path><path d="M138.51 28.1142L138.418 5.59082" stroke="#282829" stroke-width="0.755906" stroke-miterlimit="22.9256"></path><path d="M141.963 26.9643L141.871 2.66309" stroke="#282829" stroke-width="0.755906" stroke-miterlimit="22.9256"></path><path d="M145.533 26.6618L145.441 1.61035" stroke="#282829" stroke-width="0.755906" stroke-miterlimit="22.9256"></path><path d="M149.107 26.3678L149.016 0.71875" stroke="#282829" stroke-width="0.755906" stroke-miterlimit="22.9256"></path><path d="M152.62 25.9915L152.527 0.299805" stroke="#282829" stroke-width="0.755906" stroke-miterlimit="22.9256"></path><path d="M156.131 26.1797L156.039 0.0605469" stroke="#282829" stroke-width="0.755906" stroke-miterlimit="22.9256"></path><path d="M160.045 26.0468L159.953 0.121094" stroke="#282829" stroke-width="0.755906" stroke-miterlimit="22.9256"></path><path d="M163.615 25.8759L163.523 0.790039" stroke="#282829" stroke-width="0.755906" stroke-miterlimit="22.9256"></path><path d="M167.19 26.631L167.098 0.748047" stroke="#282829" stroke-width="0.755906" stroke-miterlimit="22.9256"></path><path d="M170.943 27.4283L170.852 2.16895" stroke="#282829" stroke-width="0.755906" stroke-miterlimit="22.9256"></path><path d="M174.733 27.9058L174.641 2.83203" stroke="#282829" stroke-width="0.755906" stroke-miterlimit="22.9256"></path><path d="M178.463 28.7274L178.371 5.89453" stroke="#282829" stroke-width="0.755906" stroke-miterlimit="22.9256"></path><path d="M127.004 13.5725L136.809 9.8584" stroke="#282829" stroke-width="0.755906" stroke-miterlimit="22.9256"></path><path d="M131.418 8.70706L138.029 6.20312" stroke="#282829" stroke-width="0.755906" stroke-miterlimit="22.9256"></path><path d="M181.042 54.6646L170.797 50.7842" stroke="#282829" stroke-width="0.755906" stroke-miterlimit="22.9256"></path><path d="M176.303 56.5721L169.219 53.8887" stroke="#282829" stroke-width="0.755906" stroke-miterlimit="22.9256"></path><path d="M172.564 58.494L166.875 56.3389" stroke="#282829" stroke-width="0.755906" stroke-miterlimit="22.9256"></path><path d="M169.361 60.359L165.398 58.8574" stroke="#282829" stroke-width="0.755906" stroke-miterlimit="22.9256"></path><path d="M166.634 62.0227L163.777 60.9414" stroke="#282829" stroke-width="0.755906" stroke-miterlimit="22.9256"></path><path d="M194.478 19.2661L180.629 14.0205" stroke="#282829" stroke-width="0.755906" stroke-miterlimit="22.9256"></path><path d="M189.625 13.8186L179.82 10.1045" stroke="#282829" stroke-width="0.755906" stroke-miterlimit="22.9256"></path><path d="M185.212 8.95278L178.602 6.44922" stroke="#282829" stroke-width="0.755906" stroke-miterlimit="22.9256"></path><path d="M177.789 55.7256L177.881 64.4506" stroke="#282829" stroke-width="0.755906" stroke-miterlimit="22.9256"></path><path d="M174.785 57.0684L174.877 65.793" stroke="#282829" stroke-width="0.755906" stroke-miterlimit="22.9256"></path><path d="M171.754 58.2012L171.843 66.6507" stroke="#282829" stroke-width="0.755906" stroke-miterlimit="22.9256"></path><path d="M168.586 60.377L168.679 66.8872" stroke="#282829" stroke-width="0.755906" stroke-miterlimit="22.9256"></path><path d="M165.711 61.9688L165.803 67.7586" stroke="#282829" stroke-width="0.755906" stroke-miterlimit="22.9256"></path><path d="M163.109 64.6689L163.201 68.2497" stroke="#282829" stroke-width="0.755906" stroke-miterlimit="22.9256"></path><path fill-rule="evenodd" clip-rule="evenodd" d="M69.1608 335.405L69.0508 342.976C131.95 355.952 191.643 353.971 249.081 342.347V334.873C189.949 343.878 130 344.322 69.1608 335.405Z" fill="#C4C2C2"></path><path d="M72.5762 326.895L72.4844 354.058" stroke="#282829" stroke-width="0.755906" stroke-miterlimit="22.9256"></path><path d="M76.1469 327.137L76.0547 354.3" stroke="#282829" stroke-width="0.755906" stroke-miterlimit="22.9256"></path><path d="M79.5645 327.97L79.4727 355.132" stroke="#282829" stroke-width="0.755906" stroke-miterlimit="22.9256"></path><path d="M83.2289 328.79L83.1367 355.953" stroke="#282829" stroke-width="0.755906" stroke-miterlimit="22.9256"></path><path d="M86.7442 328.949L86.6523 356.843" stroke="#282829" stroke-width="0.755906" stroke-miterlimit="22.9256"></path><path d="M90.1977 329.127L90.1055 357.136" stroke="#282829" stroke-width="0.755906" stroke-miterlimit="22.9256"></path><path d="M93.7676 329.849L93.6758 357.997" stroke="#282829" stroke-width="0.755906" stroke-miterlimit="22.9256"></path><path d="M97.4903 329.896L97.3984 358.776" stroke="#282829" stroke-width="0.755906" stroke-miterlimit="22.9256"></path><path d="M101.17 330.501L101.078 359.252" stroke="#282829" stroke-width="0.755906" stroke-miterlimit="22.9256"></path><path d="M104.745 330.743L104.652 359.437" stroke="#282829" stroke-width="0.755906" stroke-miterlimit="22.9256"></path><path d="M108.163 331.18L108.07 360.041" stroke="#282829" stroke-width="0.755906" stroke-miterlimit="22.9256"></path><path d="M111.826 331.413L111.734 360.599" stroke="#282829" stroke-width="0.755906" stroke-miterlimit="22.9256"></path><path d="M115.338 331.459L115.246 360.451" stroke="#282829" stroke-width="0.755906" stroke-miterlimit="22.9256"></path><path d="M118.791 331.923L118.699 361.247" stroke="#282829" stroke-width="0.755906" stroke-miterlimit="22.9256"></path><path d="M122.366 331.97L122.273 361.605" stroke="#282829" stroke-width="0.755906" stroke-miterlimit="22.9256"></path><path d="M126.084 332.062L125.992 361.851" stroke="#282829" stroke-width="0.755906" stroke-miterlimit="22.9256"></path><path d="M129.897 332.539L129.805 362.384" stroke="#282829" stroke-width="0.755906" stroke-miterlimit="22.9256"></path><path d="M133.315 332.976L133.223 362.384" stroke="#282829" stroke-width="0.755906" stroke-miterlimit="22.9256"></path><path d="M136.982 333.207L136.891 362.393" stroke="#282829" stroke-width="0.755906" stroke-miterlimit="22.9256"></path><path d="M140.495 333.254L140.402 362.529" stroke="#282829" stroke-width="0.755906" stroke-miterlimit="22.9256"></path><path d="M143.947 332.993L143.855 363.042" stroke="#282829" stroke-width="0.755906" stroke-miterlimit="22.9256"></path><path d="M147.518 332.824L147.426 363.398" stroke="#282829" stroke-width="0.755906" stroke-miterlimit="22.9256"></path><path d="M151.24 332.88L151.148 362.672" stroke="#282829" stroke-width="0.755906" stroke-miterlimit="22.9256"></path><path d="M246.316 326.521L246.408 352.983" stroke="#282829" stroke-width="0.755906" stroke-miterlimit="22.9256"></path><path d="M242.742 326.763L242.835 353.925" stroke="#282829" stroke-width="0.755906" stroke-miterlimit="22.9256"></path><path d="M239.324 327.595L239.416 354.757" stroke="#282829" stroke-width="0.755906" stroke-miterlimit="22.9256"></path><path d="M235.66 328.416L235.752 355.578" stroke="#282829" stroke-width="0.755906" stroke-miterlimit="22.9256"></path><path d="M232.148 328.574L232.241 355.794" stroke="#282829" stroke-width="0.755906" stroke-miterlimit="22.9256"></path><path d="M228.695 328.753L228.787 356.761" stroke="#282829" stroke-width="0.755906" stroke-miterlimit="22.9256"></path><path d="M225.121 329.474L225.213 357.622" stroke="#282829" stroke-width="0.755906" stroke-miterlimit="22.9256"></path><path d="M221.402 329.521L221.494 357.798" stroke="#282829" stroke-width="0.755906" stroke-miterlimit="22.9256"></path><path d="M217.719 330.127L217.811 358.877" stroke="#282829" stroke-width="0.755906" stroke-miterlimit="22.9256"></path><path d="M214.148 330.369L214.24 359.063" stroke="#282829" stroke-width="0.755906" stroke-miterlimit="22.9256"></path><path d="M210.73 330.806L210.823 359.666" stroke="#282829" stroke-width="0.755906" stroke-miterlimit="22.9256"></path><path d="M207.062 331.038L207.154 360.224" stroke="#282829" stroke-width="0.755906" stroke-miterlimit="22.9256"></path><path d="M203.551 331.084L203.643 360.075" stroke="#282829" stroke-width="0.755906" stroke-miterlimit="22.9256"></path><path d="M200.098 331.549L200.19 360.873" stroke="#282829" stroke-width="0.755906" stroke-miterlimit="22.9256"></path><path d="M196.527 331.595L196.619 361.23" stroke="#282829" stroke-width="0.755906" stroke-miterlimit="22.9256"></path><path d="M192.805 331.687L192.897 361.476" stroke="#282829" stroke-width="0.755906" stroke-miterlimit="22.9256"></path><path d="M188.992 332.164L189.084 362.009" stroke="#282829" stroke-width="0.755906" stroke-miterlimit="22.9256"></path><path d="M185.574 332.601L185.666 362.01" stroke="#282829" stroke-width="0.755906" stroke-miterlimit="22.9256"></path><path d="M181.91 332.833L182.002 362.019" stroke="#282829" stroke-width="0.755906" stroke-miterlimit="22.9256"></path><path d="M178.398 332.88L178.49 362.155" stroke="#282829" stroke-width="0.755906" stroke-miterlimit="22.9256"></path><path d="M174.945 332.618L175.037 362.668" stroke="#282829" stroke-width="0.755906" stroke-miterlimit="22.9256"></path><path d="M171.371 332.45L171.463 363.025" stroke="#282829" stroke-width="0.755906" stroke-miterlimit="22.9256"></path><path d="M167.652 332.506L167.745 362.789" stroke="#282829" stroke-width="0.755906" stroke-miterlimit="22.9256"></path><path d="M163.707 332.607L163.799 362.891" stroke="#282829" stroke-width="0.755906" stroke-miterlimit="22.9256"></path><path d="M155.049 333.425L154.957 363.217" stroke="#282829" stroke-width="0.755906" stroke-miterlimit="22.9256"></path><path d="M159.217 332.91L159.125 362.702" stroke="#282829" stroke-width="0.755906" stroke-miterlimit="22.9256"></path><path fill-rule="evenodd" clip-rule="evenodd" d="M2.03125 366.708L2.15371 373.891C12.9953 376.787 25.9901 378.044 37.874 376.549L38.9803 369.074C26.1208 369.909 14.9293 369.191 2.03125 366.708Z" fill="#C4C2C2"></path><path d="M5.29584 357.696L3.12109 384.772" stroke="#282829" stroke-width="0.755906" stroke-miterlimit="22.9256"></path><path d="M8.83981 358.211L6.64844 385.497" stroke="#282829" stroke-width="0.755906" stroke-miterlimit="22.9256"></path><path d="M12.397 358.545L10.2227 386.236" stroke="#282829" stroke-width="0.755906" stroke-miterlimit="22.9256"></path><path d="M15.9179 358.983L13.6328 386.869" stroke="#282829" stroke-width="0.755906" stroke-miterlimit="22.9256"></path><path d="M19.4105 359.378L17.125 387.37" stroke="#282829" stroke-width="0.755906" stroke-miterlimit="22.9256"></path><path d="M22.8651 359.575L20.543 387.453" stroke="#282829" stroke-width="0.755906" stroke-miterlimit="22.9256"></path><path d="M26.4101 359.562L24.125 387.524" stroke="#282829" stroke-width="0.755906" stroke-miterlimit="22.9256"></path><path d="M29.9653 359.896L27.7539 387.527" stroke="#282829" stroke-width="0.755906" stroke-miterlimit="22.9256"></path><path d="M33.4854 359.924L31.3477 387.481" stroke="#282829" stroke-width="0.755906" stroke-miterlimit="22.9256"></path><path d="M36.9787 359.773L34.8047 387.39" stroke="#282829" stroke-width="0.755906" stroke-miterlimit="22.9256"></path><path fill-rule="evenodd" clip-rule="evenodd" d="M316.032 357.524L315.909 384.806C304.96 387.702 292.876 388.673 280.875 387.177L277.016 359.663C290.002 360.498 303.007 360.007 316.032 357.524Z" fill="#C4C2C2" stroke="#282829" stroke-width="0.639874" stroke-miterlimit="22.9256"></path><path fill-rule="evenodd" clip-rule="evenodd" d="M315.726 366.986L315.604 374.171C304.762 377.066 291.767 378.324 279.883 376.828L278.777 369.354C291.637 370.189 302.828 369.47 315.726 366.986Z" fill="#C4C2C2"></path><path d="M312.461 357.975L314.636 385.051" stroke="#282829" stroke-width="0.755906" stroke-miterlimit="22.9256"></path><path d="M308.918 358.49L311.109 385.776" stroke="#282829" stroke-width="0.755906" stroke-miterlimit="22.9256"></path><path d="M305.359 358.824L307.534 386.516" stroke="#282829" stroke-width="0.755906" stroke-miterlimit="22.9256"></path><path d="M301.84 359.263L304.125 387.149" stroke="#282829" stroke-width="0.755906" stroke-miterlimit="22.9256"></path><path d="M298.348 359.657L300.633 387.65" stroke="#282829" stroke-width="0.755906" stroke-miterlimit="22.9256"></path><path d="M294.891 359.855L297.213 387.733" stroke="#282829" stroke-width="0.755906" stroke-miterlimit="22.9256"></path><path d="M291.348 359.842L293.633 387.804" stroke="#282829" stroke-width="0.755906" stroke-miterlimit="22.9256"></path><path d="M287.793 360.175L290.004 387.805" stroke="#282829" stroke-width="0.755906" stroke-miterlimit="22.9256"></path><path d="M284.27 360.203L286.407 387.76" stroke="#282829" stroke-width="0.755906" stroke-miterlimit="22.9256"></path><path d="M280.777 360.052L282.952 387.669" stroke="#282829" stroke-width="0.755906" stroke-miterlimit="22.9256"></path><path fill-rule="evenodd" clip-rule="evenodd" d="M199.838 51.2594C196.313 51.0349 193.006 51.4148 188.531 52.2966C192.202 42.1255 195.489 32.231 195.794 21.0693C198.387 23.5498 200.202 24.5801 203.468 26.4888C202.908 34.724 201.723 43.1561 199.838 51.2594Z" fill="#C4C2C2"></path><path fill-rule="evenodd" clip-rule="evenodd" d="M116.911 50.9212C120.436 50.6967 123.766 50.8286 128.218 51.8676C124.547 41.6965 121.26 32.231 120.955 21.0693C118.362 23.5498 116.547 24.6678 113.281 26.4888C113.841 34.724 115.026 42.8179 116.911 50.9212Z" fill="#C4C2C2"></path><path d="M122.156 19.021L136.005 13.7754" stroke="#282829" stroke-width="0.755906" stroke-miterlimit="22.9256"></path><path d="M99.3945 35.8514L135.376 22.2217" stroke="#282829" stroke-width="0.755906" stroke-miterlimit="22.9256"></path><path d="M97.3906 40.6857L135.683 26.1807" stroke="#282829" stroke-width="0.755906" stroke-miterlimit="22.9256"></path><path d="M95.5742 45.4531L136.787 29.8418" stroke="#282829" stroke-width="0.755906" stroke-miterlimit="22.9256"></path><path d="M108.055 28.0186L135.547 17.6045" stroke="#282829" stroke-width="0.755906" stroke-miterlimit="22.9256"></path><path d="M140.328 56.326L147.412 53.6426" stroke="#282829" stroke-width="0.755906" stroke-miterlimit="22.9256"></path><path d="M144.066 58.2488L149.755 56.0938" stroke="#282829" stroke-width="0.755906" stroke-miterlimit="22.9256"></path><path d="M147.266 60.1139L151.229 58.6123" stroke="#282829" stroke-width="0.755906" stroke-miterlimit="22.9256"></path><path d="M149.996 61.7778L152.852 60.6953" stroke="#282829" stroke-width="0.755906" stroke-miterlimit="22.9256"></path><path d="M130.209 52.5371L130.117 59.3217" stroke="#282829" stroke-width="0.755906" stroke-miterlimit="22.9256"></path><path d="M133.12 53.2529L133.027 60.4749" stroke="#282829" stroke-width="0.755906" stroke-miterlimit="22.9256"></path><path d="M136.15 54.3281L136.059 62.174" stroke="#282829" stroke-width="0.755906" stroke-miterlimit="22.9256"></path><path d="M139.15 55.6221L139.059 63.4687" stroke="#282829" stroke-width="0.755906" stroke-miterlimit="22.9256"></path><path d="M142.155 56.8301L142.062 64.6768" stroke="#282829" stroke-width="0.755906" stroke-miterlimit="22.9256"></path><path d="M145.186 57.8486L145.094 65.6957" stroke="#282829" stroke-width="0.755906" stroke-miterlimit="22.9256"></path><path d="M148.354 60.1943L148.262 66.8229" stroke="#282829" stroke-width="0.755906" stroke-miterlimit="22.9256"></path><path d="M151.229 62.126L151.137 67.3327" stroke="#282829" stroke-width="0.755906" stroke-miterlimit="22.9256"></path><path d="M153.83 64.1934L153.738 67.4139" stroke="#282829" stroke-width="0.755906" stroke-miterlimit="22.9256"></path><path d="M127.686 52.0078L127.594 57.4439" stroke="#282829" stroke-width="0.755906" stroke-miterlimit="22.9256"></path><path d="M99.7031 52.4803L139.253 37.499" stroke="#282829" stroke-width="0.755906" stroke-miterlimit="22.9256"></path><path d="M114.328 51.1385L140.496 41.2256" stroke="#282829" stroke-width="0.755906" stroke-miterlimit="22.9256"></path><path d="M122.789 51.7647L142.13 44.4385" stroke="#282829" stroke-width="0.755906" stroke-miterlimit="22.9256"></path><path d="M129.922 52.6768L143.762 47.4346" stroke="#282829" stroke-width="0.755906" stroke-miterlimit="22.9256"></path><path d="M135.59 54.4185L145.834 50.5381" stroke="#282829" stroke-width="0.755906" stroke-miterlimit="22.9256"></path><path d="M124.975 52.0889L124.883 55.4303" stroke="#282829" stroke-width="0.755906" stroke-miterlimit="22.9256"></path><path d="M93.8281 50.2937L137.918 33.5928" stroke="#282829" stroke-width="0.755906" stroke-miterlimit="22.9256"></path><path d="M217.235 36.0971L181.254 22.4678" stroke="#282829" stroke-width="0.755906" stroke-miterlimit="22.9256"></path><path d="M219.236 40.9328L180.945 26.4277" stroke="#282829" stroke-width="0.755906" stroke-miterlimit="22.9256"></path><path d="M208.575 28.2647L181.082 17.8506" stroke="#282829" stroke-width="0.755906" stroke-miterlimit="22.9256"></path><path d="M222.801 50.5395L178.711 33.8389" stroke="#282829" stroke-width="0.755906" stroke-miterlimit="22.9256"></path><path d="M216.929 52.7266L177.379 37.7441" stroke="#282829" stroke-width="0.755906" stroke-miterlimit="22.9256"></path><path d="M202.301 51.3842L176.133 41.4717" stroke="#282829" stroke-width="0.755906" stroke-miterlimit="22.9256"></path><path d="M193.841 52.0118L174.5 44.6855" stroke="#282829" stroke-width="0.755906" stroke-miterlimit="22.9256"></path><path d="M186.707 52.9226L172.867 47.6797" stroke="#282829" stroke-width="0.755906" stroke-miterlimit="22.9256"></path><path d="M186.73 52.6875L186.822 60.2318" stroke="#282829" stroke-width="0.755906" stroke-miterlimit="22.9256"></path><path d="M183.82 53.6289L183.913 61.6593" stroke="#282829" stroke-width="0.755906" stroke-miterlimit="22.9256"></path><path d="M180.789 54.2861L180.881 63.0108" stroke="#282829" stroke-width="0.755906" stroke-miterlimit="22.9256"></path><path d="M189.254 52.4922L189.346 58.536" stroke="#282829" stroke-width="0.755906" stroke-miterlimit="22.9256"></path><path d="M191.965 52.1475L192.057 56.9939" stroke="#282829" stroke-width="0.755906" stroke-miterlimit="22.9256"></path><path d="M194.16 52.0205L194.237 55.4051" stroke="#282829" stroke-width="0.755906" stroke-miterlimit="22.9256"></path><path d="M196.469 51.5264L196.545 53.765" stroke="#282829" stroke-width="0.755906" stroke-miterlimit="22.9256"></path><path d="M221.056 45.6983L179.844 30.0869" stroke="#282829" stroke-width="0.755906" stroke-miterlimit="22.9256"></path><path d="M158.008 99.6189L158.387 67.9517C179.615 50.2121 201.025 48.2472 224.408 55.1104" stroke="#282829" stroke-width="1.88976" stroke-miterlimit="22.9256" stroke-dasharray="3.2 3.2"></path><path d="M158.091 99.5384L158.483 67.8992C137.672 49.5341 115.352 48.3753 91.9688 55.2386" stroke="#282829" stroke-width="1.88976" stroke-miterlimit="22.9256" stroke-dasharray="3.2 3.2"></path><path fill-rule="evenodd" clip-rule="evenodd" d="M156.242 67.0283H160.301V76.8211H156.242V67.0283Z" fill="#C4C2C2" stroke="#282829" stroke-width="0.755906" stroke-miterlimit="22.9256"></path></svg> 