<?xml version="1.0" encoding="UTF-8"?> <svg xmlns="http://www.w3.org/2000/svg" width="329" height="324" viewBox="0 0 329 324" fill="none"><path fill-rule="evenodd" clip-rule="evenodd" d="M284.809 56.4229C276.381 64.039 264.186 74.3533 257.66 91.7346L258.682 208.641L278.63 323.026C297.693 322.883 313.665 319.99 328.53 315.002L284.809 56.4229Z" fill="#C4C2C2" stroke="#282829" stroke-width="0.639874" stroke-miterlimit="22.9256"></path><path fill-rule="evenodd" clip-rule="evenodd" d="M44.0821 55.1445C52.5101 62.7607 64.7055 73.0746 71.2312 90.4559L70.2092 207.362L50.2605 321.747C31.1985 321.605 15.2255 318.712 0.361328 313.723L44.0821 55.1445Z" fill="#C4C2C2" stroke="#282829" stroke-width="0.639874" stroke-miterlimit="22.9256"></path><path fill-rule="evenodd" clip-rule="evenodd" d="M118.125 0.835204C142.163 23.8355 180.521 23.5336 205.947 0.610352C208.407 1.41501 211.576 2.55645 215.271 3.81276C230.772 9.08558 253.383 13.0242 263.132 19.2646C277.478 29.4077 280.982 42.1443 284.956 57.0837C273.33 64.7353 264.229 78.5302 257.635 92.1917L261.546 305.217C199.715 310.023 131.19 310.093 69.3594 304.778L71.2329 90.4573C64.8308 76.645 53.917 64.0618 43.9375 55.7601C48.2654 38.0069 52.017 26.499 65.3009 17.7974C73.2561 13.1947 93.2184 9.32294 108.879 3.61094C112.86 2.1596 115.191 1.88667 118.125 0.835204Z" fill="#C4C2C2" stroke="#282829" stroke-width="0.639874" stroke-miterlimit="22.9256"></path><path d="M71.2333 90.748L70.5742 62.4756" stroke="#282829" stroke-width="0.639874" stroke-miterlimit="22.9256"></path><path d="M257.432 92.6881L258.091 64.416" stroke="#282829" stroke-width="0.639874" stroke-miterlimit="22.9256"></path><path d="M69.7168 298.693C131.834 303.347 195.922 303.641 261.455 299.159" stroke="#282829" stroke-width="0.639874" stroke-miterlimit="22.9256" stroke-dasharray="3.2 3.2"></path><path d="M69.7168 296.788C131.834 301.442 195.639 301.755 261.172 297.274" stroke="#282829" stroke-width="0.639874" stroke-miterlimit="22.9256" stroke-dasharray="3.2 3.2"></path><path d="M1.07812 307.572C16.8236 312.945 34.8732 315.086 51.0306 316.25" stroke="#282829" stroke-width="0.639874" stroke-miterlimit="22.9256" stroke-dasharray="3.2 3.2"></path><path d="M1.49609 305.94C17.3799 311.104 34.7544 313.726 51.3284 314.542" stroke="#282829" stroke-width="0.639874" stroke-miterlimit="22.9256" stroke-dasharray="3.2 3.2"></path><path d="M201.556 11.3928C197.179 12.6313 192.799 13.8699 187.149 14.8072C181.498 15.7411 174.575 16.375 167.918 16.6592C161.261 16.9434 154.873 16.8821 149.163 16.4966C143.455 16.1088 138.423 15.4002 134.093 14.4685C129.761 13.5361 126.134 12.3845 124.318 11.81C122.504 11.2344 122.504 11.2344 122.504 11.2344C122.504 11.2344 122.504 11.2344 123.499 12.8959C124.493 14.56 126.484 17.8833 128.177 20.3072C129.871 22.7313 131.268 24.2522 133.03 25.6907C134.795 27.1273 136.928 28.4838 138.944 29.5655C140.957 30.6487 142.857 31.459 145.339 32.2924C147.822 33.125 150.887 33.9792 153.489 34.4709C156.089 34.96 158.225 35.0911 160.48 35.1558C162.734 35.2223 165.106 35.2249 167.47 34.9985C169.834 34.774 172.185 34.3186 174.684 33.6655C177.182 33.0101 179.822 32.1548 182.275 31.0546C184.723 29.9521 186.986 28.6032 188.928 27.1795C190.871 25.7554 192.495 24.2537 194.199 22.2581C195.904 20.2644 197.691 17.776 198.931 15.8832C200.171 13.9893 200.864 12.6918 201.556 11.3928Z" fill="#B8B6B6" stroke="#282829" stroke-width="0.566929" stroke-miterlimit="22.9256"></path><path d="M118.645 0.958552C117.773 0.610836 117.98 1.05112 117.98 1.05112C117.98 1.05112 117.773 0.610847 118.548 2.2557C119.325 3.90319 120.881 7.19517 121.683 8.8918C122.489 10.588 122.543 10.6878 122.568 10.7377C122.594 10.788 122.594 10.788 122.594 10.788C122.594 10.788 122.594 10.788 124.511 11.3209C126.428 11.8527 130.261 12.9151 134.086 13.7345C137.914 14.5554 141.735 15.1307 145.259 15.5158C148.78 15.9009 152 16.0933 155.501 16.1802C159.005 16.2649 162.787 16.2467 166.815 16.0933C170.84 15.9379 175.115 15.6488 179.061 15.2429C183.007 14.8388 186.625 14.3184 189.909 13.7031C193.194 13.0901 196.142 12.3807 198.054 11.9033C199.962 11.4267 200.833 11.184 201.267 11.0612C201.706 10.9414 201.706 10.9414 201.706 10.9414C201.706 10.9414 201.706 10.9414 202.316 9.59285C202.926 8.24621 204.144 5.54874 204.923 3.85816C205.702 2.16531 205.551 1.27756 205.719 0.932863C205.889 0.588926 205.889 0.588867 205.889 0.588867C205.889 0.588867 206.376 0.785822 204.143 1.41549C201.909 2.04516 197.445 3.30295 192.931 4.33665C188.414 5.37187 183.846 6.18259 178.754 6.78619C173.661 7.3894 168.042 7.78659 162.466 7.86483C156.894 7.94344 151.365 7.70313 146.716 7.31421C142.074 6.92379 138.312 6.38634 134.507 5.59113C130.706 4.79781 126.862 3.75006 124.065 2.87585C121.268 2.00391 119.518 1.3074 118.645 0.958552Z" fill="#B8B6B6" stroke="#282829" stroke-width="0.566929" stroke-miterlimit="22.9256"></path><path d="M118.726 2.52779C118.018 0.841747 118.018 0.841771 118.018 0.841771C114.961 1.73865 111.931 2.61697 108.688 3.60909C110.787 8.83883 112.763 13.8127 115.623 18.5348C118.486 23.2555 122.11 27.4674 125.955 30.7616C129.801 34.0532 133.87 36.4248 138.859 38.3089C143.845 40.1919 149.747 41.5885 155.749 42.1592C161.754 42.7291 167.856 42.4736 172.915 41.7219C177.97 40.972 181.98 39.727 186.292 37.7503C190.602 35.7755 195.22 33.0713 199.045 29.7075C202.875 26.3472 205.911 22.3254 208.499 17.8746C211.088 13.4238 213.192 8.71981 215.33 3.84044C212.185 2.76101 209.018 1.69967 205.889 0.588867C205.889 0.588867 205.889 0.588906 204.927 2.84869C203.963 5.10846 202.077 9.45072 200.101 13.1497C198.125 16.848 196.1 19.7281 194.013 22.0801C191.927 24.4321 189.781 26.2579 187.294 27.874C184.801 29.4879 181.966 30.8932 178.938 31.9288C175.903 32.9651 172.674 33.634 169.812 34.0562C166.947 34.4795 164.448 34.6561 161.409 34.5714C158.371 34.4864 154.795 34.1375 151.162 33.3805C147.527 32.6253 143.832 31.4604 140.789 30.0715C137.748 28.681 135.358 27.0656 133.314 25.3456C131.269 23.6251 129.568 21.7996 127.769 19.3417C125.964 16.8828 124.063 13.7949 122.4 10.5631C120.739 7.33231 119.438 4.2146 118.726 2.52779Z" fill="#C4C2C2" stroke="#282829" stroke-width="0.566929" stroke-miterlimit="22.9256"></path><path d="M198.979 13.8749C199.782 13.6852 199.781 13.6851 199.781 13.6851C199.781 13.6851 199.782 13.6852 200.258 12.8529C200.714 12.021 201.444 10.3251 201.932 9.48987C202.408 8.65535 202.324 8.65239 202.372 8.54883C202.166 8.67469 202.626 8.68829 201.68 8.97402C200.735 9.25711 198.24 9.87124 195.606 10.4847C192.975 11.0988 189.6 11.758 185.835 12.3382C182.07 12.9198 177.917 13.4214 173.63 13.757C169.343 14.0941 164.921 14.2661 161 14.2944C157.074 14.3205 153.649 14.2007 150.295 13.9747C146.942 13.7505 143.66 13.4176 139.992 12.8802C136.327 12.3446 132.27 11.6038 129.114 10.8963C125.955 10.1884 123.692 9.51559 122.559 9.17732C121.429 8.83943 121.503 8.76386 121.503 8.76386C121.503 8.76386 121.503 8.76388 121.877 9.62297C122.326 10.4072 123.226 11.9719 123.676 12.7558C124.123 13.5389 124.123 13.5389 124.123 13.5389C124.123 13.5389 124.123 13.5389 125.52 13.865C126.913 14.1924 129.704 14.8459 132.372 15.3973C135.039 15.9525 137.584 16.403 140.551 16.8154C143.515 17.2254 146.904 17.5955 150.341 17.8313C153.78 18.0679 157.265 18.167 160.966 18.1367C164.663 18.1046 168.573 17.9405 172.397 17.6688C176.217 17.3974 179.953 17.0172 183.6 16.5304C187.247 16.0436 190.803 15.4521 193.386 14.9664C195.969 14.4823 198.178 14.062 198.979 13.8749Z" fill="#B8B6B6" stroke="#282829" stroke-width="0.566929" stroke-miterlimit="22.9256"></path><path d="M107.17 4.21666C116.841 28.8777 126.525 42.2255 161.815 43.9879C194.391 42.9123 205.495 29.2497 217.023 3.94043" stroke="#282829" stroke-width="0.566929" stroke-miterlimit="22.9256" stroke-dasharray="3.2 3.2"></path><path d="M109.555 5.93648L118.817 2.89551" stroke="#282829" stroke-width="0.566929" stroke-miterlimit="22.9256"></path><path d="M110.586 8.4245L119.958 5.50977" stroke="#282829" stroke-width="0.566929" stroke-miterlimit="22.9256"></path><path d="M111.904 11.1432L121.251 8.01074" stroke="#282829" stroke-width="0.566929" stroke-miterlimit="22.9256"></path><path d="M113.283 14.0925L122.635 10.7129" stroke="#282829" stroke-width="0.566929" stroke-miterlimit="22.9256"></path><path d="M114.713 16.9031L123.86 13.458" stroke="#282829" stroke-width="0.566929" stroke-miterlimit="22.9256"></path><path d="M116.553 19.6241L125.699 16.1787" stroke="#282829" stroke-width="0.566929" stroke-miterlimit="22.9256"></path><path d="M118.334 22.558L127.181 18.834" stroke="#282829" stroke-width="0.566929" stroke-miterlimit="22.9256"></path><path d="M120.508 25.2858L129.255 21.2549" stroke="#282829" stroke-width="0.566929" stroke-miterlimit="22.9256"></path><path d="M122.924 27.9253L131.228 23.4307" stroke="#282829" stroke-width="0.566929" stroke-miterlimit="22.9256"></path><path d="M133.315 25.3457L125.955 30.7617" stroke="#282829" stroke-width="0.566929" stroke-miterlimit="22.9256"></path><path d="M135.72 27.1934L128.984 33.1314" stroke="#282829" stroke-width="0.566929" stroke-miterlimit="22.9256"></path><path d="M138.136 28.7148L132.301 35.2496" stroke="#282829" stroke-width="0.566929" stroke-miterlimit="22.9256"></path><path d="M140.79 30.0713L135.836 37.0555" stroke="#282829" stroke-width="0.566929" stroke-miterlimit="22.9256"></path><path d="M143.66 31.2471L139.287 38.4683" stroke="#282829" stroke-width="0.566929" stroke-miterlimit="22.9256"></path><path d="M146.717 32.2598L142.947 39.6816" stroke="#282829" stroke-width="0.566929" stroke-miterlimit="22.9256"></path><path d="M149.711 33.0576L146.658 40.6643" stroke="#282829" stroke-width="0.566929" stroke-miterlimit="22.9256"></path><path d="M152.708 33.6797L150.207 41.3982" stroke="#282829" stroke-width="0.566929" stroke-miterlimit="22.9256"></path><path d="M155.946 34.1621L154.02 41.9713" stroke="#282829" stroke-width="0.566929" stroke-miterlimit="22.9256"></path><path d="M159.11 34.2988L157.848 42.3247" stroke="#282829" stroke-width="0.566929" stroke-miterlimit="22.9256"></path><path d="M162.178 34.4541L161.854 42.4679" stroke="#282829" stroke-width="0.566929" stroke-miterlimit="22.9256"></path><path d="M214.172 5.86714L204.91 2.82617" stroke="#282829" stroke-width="0.566929" stroke-miterlimit="22.9256"></path><path d="M213.14 8.35628L203.768 5.44043" stroke="#282829" stroke-width="0.566929" stroke-miterlimit="22.9256"></path><path d="M211.822 11.0745L202.475 7.94238" stroke="#282829" stroke-width="0.566929" stroke-miterlimit="22.9256"></path><path d="M210.443 14.0236L201.092 10.6436" stroke="#282829" stroke-width="0.566929" stroke-miterlimit="22.9256"></path><path d="M209.012 16.8335L199.865 13.3877" stroke="#282829" stroke-width="0.566929" stroke-miterlimit="22.9256"></path><path d="M207.174 19.5548L198.027 16.1094" stroke="#282829" stroke-width="0.566929" stroke-miterlimit="22.9256"></path><path d="M205.393 22.4887L196.547 18.7646" stroke="#282829" stroke-width="0.566929" stroke-miterlimit="22.9256"></path><path d="M203.218 25.2167L194.471 21.1865" stroke="#282829" stroke-width="0.566929" stroke-miterlimit="22.9256"></path><path d="M200.803 27.8556L192.498 23.3613" stroke="#282829" stroke-width="0.566929" stroke-miterlimit="22.9256"></path><path d="M190.412 25.2754L197.772 30.6922" stroke="#282829" stroke-width="0.566929" stroke-miterlimit="22.9256"></path><path d="M188.004 27.123L194.74 33.0607" stroke="#282829" stroke-width="0.566929" stroke-miterlimit="22.9256"></path><path d="M185.59 28.6465L191.425 35.1809" stroke="#282829" stroke-width="0.566929" stroke-miterlimit="22.9256"></path><path d="M182.938 30.002L187.891 36.9854" stroke="#282829" stroke-width="0.566929" stroke-miterlimit="22.9256"></path><path d="M180.066 31.1777L184.439 38.4" stroke="#282829" stroke-width="0.566929" stroke-miterlimit="22.9256"></path><path d="M177.008 32.1914L180.779 39.6114" stroke="#282829" stroke-width="0.566929" stroke-miterlimit="22.9256"></path><path d="M174.016 32.9883L177.068 40.5949" stroke="#282829" stroke-width="0.566929" stroke-miterlimit="22.9256"></path><path d="M171.018 33.6104L173.518 41.3285" stroke="#282829" stroke-width="0.566929" stroke-miterlimit="22.9256"></path><path d="M167.781 34.0928L169.707 41.9013" stroke="#282829" stroke-width="0.566929" stroke-miterlimit="22.9256"></path><path d="M164.615 34.2305L165.877 42.2559" stroke="#282829" stroke-width="0.566929" stroke-miterlimit="22.9256"></path><path d="M122.114 2.22559L122.102 9.01737" stroke="#282829" stroke-width="0.566929" stroke-miterlimit="22.9256"></path><path d="M125.235 3.2334L125.039 9.7894" stroke="#282829" stroke-width="0.566929" stroke-miterlimit="22.9256"></path><path d="M128.195 4.12891L128.212 10.7155" stroke="#282829" stroke-width="0.566929" stroke-miterlimit="22.9256"></path><path d="M131.31 4.86816L131.258 11.3534" stroke="#282829" stroke-width="0.566929" stroke-miterlimit="22.9256"></path><path d="M134.393 5.56641L134.529 11.9833" stroke="#282829" stroke-width="0.566929" stroke-miterlimit="22.9256"></path><path d="M137.639 6.18848L137.714 12.5286" stroke="#282829" stroke-width="0.566929" stroke-miterlimit="22.9256"></path><path d="M119.432 1.29297L119.406 4.02405" stroke="#282829" stroke-width="0.566929" stroke-miterlimit="22.9256"></path><path d="M140.836 6.60742L140.828 12.9276" stroke="#282829" stroke-width="0.566929" stroke-miterlimit="22.9256"></path><path d="M143.826 7.02832L143.818 13.3485" stroke="#282829" stroke-width="0.566929" stroke-miterlimit="22.9256"></path><path d="M146.869 7.41699L146.861 13.7371" stroke="#282829" stroke-width="0.566929" stroke-miterlimit="22.9256"></path><path d="M149.789 7.5791L149.844 13.9808" stroke="#282829" stroke-width="0.566929" stroke-miterlimit="22.9256"></path><path d="M152.98 7.6709L153.035 14.0731" stroke="#282829" stroke-width="0.566929" stroke-miterlimit="22.9256"></path><path d="M201.674 1.91797L201.686 8.71056" stroke="#282829" stroke-width="0.566929" stroke-miterlimit="22.9256"></path><path d="M198.553 2.92676L198.748 9.48269" stroke="#282829" stroke-width="0.566929" stroke-miterlimit="22.9256"></path><path d="M195.593 3.82324L195.576 10.4087" stroke="#282829" stroke-width="0.566929" stroke-miterlimit="22.9256"></path><path d="M192.48 4.5625L192.531 11.047" stroke="#282829" stroke-width="0.566929" stroke-miterlimit="22.9256"></path><path d="M189.396 5.25977L189.26 11.6751" stroke="#282829" stroke-width="0.566929" stroke-miterlimit="22.9256"></path><path d="M186.149 5.88086L186.074 12.2218" stroke="#282829" stroke-width="0.566929" stroke-miterlimit="22.9256"></path><path d="M204.357 1.24121L204.365 4.07512" stroke="#282829" stroke-width="0.566929" stroke-miterlimit="22.9256"></path><path d="M182.953 6.30078L182.96 12.6198" stroke="#282829" stroke-width="0.566929" stroke-miterlimit="22.9256"></path><path d="M179.963 6.7207L179.97 13.0412" stroke="#282829" stroke-width="0.566929" stroke-miterlimit="22.9256"></path><path d="M177.039 7.08496L177.047 13.4055" stroke="#282829" stroke-width="0.566929" stroke-miterlimit="22.9256"></path><path d="M174.203 7.21973L174.148 13.6218" stroke="#282829" stroke-width="0.566929" stroke-miterlimit="22.9256"></path><path d="M171.383 7.27246L171.328 13.6735" stroke="#282829" stroke-width="0.566929" stroke-miterlimit="22.9256"></path><path d="M156.07 7.70703L156.125 14.1092" stroke="#282829" stroke-width="0.566929" stroke-miterlimit="22.9256"></path><path d="M168.625 7.41113L168.57 13.8126" stroke="#282829" stroke-width="0.566929" stroke-miterlimit="22.9256"></path><path d="M165.959 7.7373L165.904 14.1379" stroke="#282829" stroke-width="0.566929" stroke-miterlimit="22.9256"></path><path d="M159.303 7.87402L159.248 14.2762" stroke="#282829" stroke-width="0.566929" stroke-miterlimit="22.9256"></path><path d="M162.695 7.83301L162.641 14.2337" stroke="#282829" stroke-width="0.566929" stroke-miterlimit="22.9256"></path><path d="M146.717 32.2598L142.947 39.6816" stroke="#282829" stroke-width="0.566929" stroke-miterlimit="22.9256"></path><path d="M149.711 33.0576L146.658 40.6643" stroke="#282829" stroke-width="0.566929" stroke-miterlimit="22.9256"></path><path d="M152.708 33.6797L150.207 41.3982" stroke="#282829" stroke-width="0.566929" stroke-miterlimit="22.9256"></path><path d="M155.946 34.1621L154.02 41.9713" stroke="#282829" stroke-width="0.566929" stroke-miterlimit="22.9256"></path><path d="M159.11 34.2988L157.848 42.3247" stroke="#282829" stroke-width="0.566929" stroke-miterlimit="22.9256"></path><path d="M162.178 34.4541L161.854 42.4679" stroke="#282829" stroke-width="0.566929" stroke-miterlimit="22.9256"></path><path d="M211.822 11.0745L202.475 7.94238" stroke="#282829" stroke-width="0.566929" stroke-miterlimit="22.9256"></path><path d="M210.443 14.0236L201.092 10.6436" stroke="#282829" stroke-width="0.566929" stroke-miterlimit="22.9256"></path><path d="M209.012 16.8335L199.865 13.3877" stroke="#282829" stroke-width="0.566929" stroke-miterlimit="22.9256"></path><path d="M207.174 19.5548L198.027 16.1094" stroke="#282829" stroke-width="0.566929" stroke-miterlimit="22.9256"></path><path d="M205.393 22.4887L196.547 18.7646" stroke="#282829" stroke-width="0.566929" stroke-miterlimit="22.9256"></path><path d="M203.218 25.2167L194.471 21.1865" stroke="#282829" stroke-width="0.566929" stroke-miterlimit="22.9256"></path><path d="M200.803 27.8556L192.498 23.3613" stroke="#282829" stroke-width="0.566929" stroke-miterlimit="22.9256"></path><path d="M190.412 25.2754L197.772 30.6922" stroke="#282829" stroke-width="0.566929" stroke-miterlimit="22.9256"></path><path d="M188.004 27.123L194.74 33.0607" stroke="#282829" stroke-width="0.566929" stroke-miterlimit="22.9256"></path><path d="M185.59 28.6465L191.425 35.1809" stroke="#282829" stroke-width="0.566929" stroke-miterlimit="22.9256"></path><path d="M182.938 30.002L187.891 36.9854" stroke="#282829" stroke-width="0.566929" stroke-miterlimit="22.9256"></path><path d="M180.066 31.1777L184.439 38.4" stroke="#282829" stroke-width="0.566929" stroke-miterlimit="22.9256"></path><path d="M177.008 32.1914L180.779 39.6114" stroke="#282829" stroke-width="0.566929" stroke-miterlimit="22.9256"></path><path d="M174.016 32.9883L177.068 40.5949" stroke="#282829" stroke-width="0.566929" stroke-miterlimit="22.9256"></path><path d="M171.018 33.6104L173.518 41.3285" stroke="#282829" stroke-width="0.566929" stroke-miterlimit="22.9256"></path><path d="M167.781 34.0928L169.707 41.9013" stroke="#282829" stroke-width="0.566929" stroke-miterlimit="22.9256"></path><path d="M164.615 34.2305L165.877 42.2559" stroke="#282829" stroke-width="0.566929" stroke-miterlimit="22.9256"></path><path d="M140.836 6.60742L140.828 12.9276" stroke="#282829" stroke-width="0.566929" stroke-miterlimit="22.9256"></path><path d="M143.826 7.02832L143.818 13.3485" stroke="#282829" stroke-width="0.566929" stroke-miterlimit="22.9256"></path><path d="M146.869 7.41699L146.861 13.7371" stroke="#282829" stroke-width="0.566929" stroke-miterlimit="22.9256"></path><path d="M149.789 7.5791L149.844 13.9808" stroke="#282829" stroke-width="0.566929" stroke-miterlimit="22.9256"></path><path d="M152.98 7.6709L153.035 14.0731" stroke="#282829" stroke-width="0.566929" stroke-miterlimit="22.9256"></path><path d="M186.149 5.88086L186.074 12.2218" stroke="#282829" stroke-width="0.566929" stroke-miterlimit="22.9256"></path><path d="M182.953 6.30078L182.96 12.6198" stroke="#282829" stroke-width="0.566929" stroke-miterlimit="22.9256"></path><path d="M179.963 6.7207L179.97 13.0412" stroke="#282829" stroke-width="0.566929" stroke-miterlimit="22.9256"></path><path d="M177.039 7.08496L177.047 13.4055" stroke="#282829" stroke-width="0.566929" stroke-miterlimit="22.9256"></path><path d="M174.203 7.21973L174.148 13.6218" stroke="#282829" stroke-width="0.566929" stroke-miterlimit="22.9256"></path><path d="M171.383 7.27246L171.328 13.6735" stroke="#282829" stroke-width="0.566929" stroke-miterlimit="22.9256"></path><path d="M156.07 7.70703L156.125 14.1092" stroke="#282829" stroke-width="0.566929" stroke-miterlimit="22.9256"></path><path d="M168.625 7.41113L168.57 13.8126" stroke="#282829" stroke-width="0.566929" stroke-miterlimit="22.9256"></path><path d="M165.959 7.7373L165.904 14.1379" stroke="#282829" stroke-width="0.566929" stroke-miterlimit="22.9256"></path><path d="M159.303 7.87402L159.248 14.2762" stroke="#282829" stroke-width="0.566929" stroke-miterlimit="22.9256"></path><path d="M162.695 7.83301L162.641 14.2337" stroke="#282829" stroke-width="0.566929" stroke-miterlimit="22.9256"></path><path d="M327.025 309.589C311.279 314.962 293.23 317.103 277.072 318.266" stroke="#282829" stroke-width="0.639874" stroke-miterlimit="22.9256" stroke-dasharray="3.2 3.2"></path><path d="M326.608 307.956C310.724 313.12 293.349 315.741 276.775 316.557" stroke="#282829" stroke-width="0.639874" stroke-miterlimit="22.9256" stroke-dasharray="3.2 3.2"></path></svg> 