<?xml version="1.0" encoding="UTF-8"?> <svg xmlns="http://www.w3.org/2000/svg" width="329" height="340" viewBox="0 0 329 340" fill="none"><path fill-rule="evenodd" clip-rule="evenodd" d="M324.922 335.544C313.84 338.045 302.372 339.236 290.366 338.596L285.199 305.29C298.005 306.066 310.371 304.646 322.456 301.817L324.922 335.544Z" fill="#C4C2C2" stroke="#282829" stroke-width="0.755906" stroke-miterlimit="22.9256"></path><path fill-rule="evenodd" clip-rule="evenodd" d="M285.321 311.337C297.831 312.335 310.337 311.116 322.839 307.703C328.321 307.272 327.507 302.487 327.678 295.948C323.78 207.856 316.247 154.662 300.528 70.3398C282.138 92.3363 266.775 121.66 251.637 149.742C258.595 216.658 265.818 231.952 278.455 298.059C279.315 301.806 280.066 310.353 285.321 311.337Z" fill="#C4C2C2" stroke="#282829" stroke-width="0.755906" stroke-miterlimit="22.9256"></path><path d="M305.168 311.084L308.499 338.309" stroke="#282829" stroke-width="0.755906" stroke-miterlimit="22.9256"></path><path d="M301.258 311.209L304.588 338.425" stroke="#282829" stroke-width="0.755906" stroke-miterlimit="22.9256"></path><path d="M297.195 311.653L300.483 338.525" stroke="#282829" stroke-width="0.755906" stroke-miterlimit="22.9256"></path><path d="M292.891 311.521L296.219 338.722" stroke="#282829" stroke-width="0.755906" stroke-miterlimit="22.9256"></path><path d="M288.738 311.518L292.075 338.784" stroke="#282829" stroke-width="0.755906" stroke-miterlimit="22.9256"></path><path d="M308.992 310.701L312.311 337.824" stroke="#282829" stroke-width="0.755906" stroke-miterlimit="22.9256"></path><path d="M312.672 309.814L316.044 337.373" stroke="#282829" stroke-width="0.755906" stroke-miterlimit="22.9256"></path><path d="M316.945 309.248L320.292 336.601" stroke="#282829" stroke-width="0.755906" stroke-miterlimit="22.9256"></path><path d="M321.133 307.911L324.477 335.25" stroke="#282829" stroke-width="0.755906" stroke-miterlimit="22.9256"></path><path fill-rule="evenodd" clip-rule="evenodd" d="M2.39062 335.869C13.4733 338.37 24.9408 339.561 36.9472 338.921L42.1142 305.615C29.308 306.39 16.9422 304.971 4.85677 302.143L2.39062 335.869Z" fill="#C4C2C2" stroke="#282829" stroke-width="0.755906" stroke-miterlimit="22.9256"></path><path fill-rule="evenodd" clip-rule="evenodd" d="M42.7364 305.581C30.2262 306.58 17.7205 305.361 5.21821 301.948C-0.263612 301.517 0.549741 296.732 0.378906 290.194C4.27711 202.101 10.9873 158.135 25.5052 70.0391C43.8949 92.0363 61.2818 115.906 76.4204 143.986C69.4623 210.903 62.2392 226.197 49.6016 292.304C48.7417 296.051 47.9911 304.598 42.7364 305.581Z" fill="#C4C2C2" stroke="#282829" stroke-width="0.755906" stroke-miterlimit="22.9256"></path><path fill-rule="evenodd" clip-rule="evenodd" d="M66.7207 293.778C131.174 295.821 195.626 295.708 260.08 293.496L260.349 323.685C195.539 326.162 130.728 326.505 65.918 325.084L66.7207 293.778Z" fill="#C4C2C2" stroke="#282829" stroke-width="0.755906" stroke-miterlimit="22.9256"></path><path d="M22.9035 305.2L18.8125 338.634" stroke="#282829" stroke-width="0.755906" stroke-miterlimit="22.9256"></path><path d="M74.3594 293.708L74.4111 324.989" stroke="#282829" stroke-width="0.755906" stroke-miterlimit="22.9256"></path><path d="M78.9258 293.456L78.9779 324.738" stroke="#282829" stroke-width="0.755906" stroke-miterlimit="22.9256"></path><path d="M83.8398 293.405L83.8886 324.687" stroke="#282829" stroke-width="0.755906" stroke-miterlimit="22.9256"></path><path d="M88.1172 293.55L88.1648 324.827" stroke="#282829" stroke-width="0.755906" stroke-miterlimit="22.9256"></path><path d="M92.8242 294.63L92.8726 325.91" stroke="#282829" stroke-width="0.755906" stroke-miterlimit="22.9256"></path><path d="M97.2031 294.841L97.2519 326.121" stroke="#282829" stroke-width="0.755906" stroke-miterlimit="22.9256"></path><path d="M101.812 294.42L101.861 325.702" stroke="#282829" stroke-width="0.755906" stroke-miterlimit="22.9256"></path><path d="M106.445 294.491L106.49 325.768" stroke="#282829" stroke-width="0.755906" stroke-miterlimit="22.9256"></path><path d="M110.797 294.349L110.844 325.63" stroke="#282829" stroke-width="0.755906" stroke-miterlimit="22.9256"></path><path d="M115.074 294.491L115.118 325.768" stroke="#282829" stroke-width="0.755906" stroke-miterlimit="22.9256"></path><path d="M119.777 294.42L119.825 325.702" stroke="#282829" stroke-width="0.755906" stroke-miterlimit="22.9256"></path><path d="M123.941 294.979L123.985 325.198" stroke="#282829" stroke-width="0.755906" stroke-miterlimit="22.9256"></path><path d="M128.551 295.327L128.595 326.188" stroke="#282829" stroke-width="0.755906" stroke-miterlimit="22.9256"></path><path d="M133.184 295.398L133.232 326.188" stroke="#282829" stroke-width="0.755906" stroke-miterlimit="22.9256"></path><path d="M137.531 295.256L137.577 325.721" stroke="#282829" stroke-width="0.755906" stroke-miterlimit="22.9256"></path><path d="M141.809 295.398L141.856 325.691" stroke="#282829" stroke-width="0.755906" stroke-miterlimit="22.9256"></path><path d="M146.512 295.327L146.56 325.659" stroke="#282829" stroke-width="0.755906" stroke-miterlimit="22.9256"></path><path d="M150.895 295.796L150.939 326.101" stroke="#282829" stroke-width="0.755906" stroke-miterlimit="22.9256"></path><path d="M155.504 295.376L155.548 325.853" stroke="#282829" stroke-width="0.755906" stroke-miterlimit="22.9256"></path><path d="M160.137 295.448L160.184 326.239" stroke="#282829" stroke-width="0.755906" stroke-miterlimit="22.9256"></path><path d="M164.484 295.306L164.533 325.788" stroke="#282829" stroke-width="0.755906" stroke-miterlimit="22.9256"></path><path d="M168.762 295.448L168.809 325.758" stroke="#282829" stroke-width="0.755906" stroke-miterlimit="22.9256"></path><path d="M173.465 295.376L173.514 326.1" stroke="#282829" stroke-width="0.755906" stroke-miterlimit="22.9256"></path><path d="M177.961 295.868L178.009 325.976" stroke="#282829" stroke-width="0.755906" stroke-miterlimit="22.9256"></path><path d="M182.57 295.448L182.615 325.657" stroke="#282829" stroke-width="0.755906" stroke-miterlimit="22.9256"></path><path d="M187.199 295.515L187.248 325.933" stroke="#282829" stroke-width="0.755906" stroke-miterlimit="22.9256"></path><path d="M191.551 295.376L191.595 325.595" stroke="#282829" stroke-width="0.755906" stroke-miterlimit="22.9256"></path><path d="M195.832 295.515L195.877 325.894" stroke="#282829" stroke-width="0.755906" stroke-miterlimit="22.9256"></path><path d="M200.535 295.448L200.58 325.872" stroke="#282829" stroke-width="0.755906" stroke-miterlimit="22.9256"></path><path d="M204.914 294.87L204.956 325.065" stroke="#282829" stroke-width="0.755906" stroke-miterlimit="22.9256"></path><path d="M209.523 294.449L209.567 324.675" stroke="#282829" stroke-width="0.755906" stroke-miterlimit="22.9256"></path><path d="M214.152 294.517L214.201 325.029" stroke="#282829" stroke-width="0.755906" stroke-miterlimit="22.9256"></path><path d="M218.504 294.378L218.55 324.61" stroke="#282829" stroke-width="0.755906" stroke-miterlimit="22.9256"></path><path d="M222.781 294.517L222.83 324.579" stroke="#282829" stroke-width="0.755906" stroke-miterlimit="22.9256"></path><path d="M227.488 294.449L227.533 325.029" stroke="#282829" stroke-width="0.755906" stroke-miterlimit="22.9256"></path><path d="M232.051 294.239L232.1 324.338" stroke="#282829" stroke-width="0.755906" stroke-miterlimit="22.9256"></path><path d="M236.828 294.551L236.875 324.482" stroke="#282829" stroke-width="0.755906" stroke-miterlimit="22.9256"></path><path d="M241.723 294.354L241.766 324.055" stroke="#282829" stroke-width="0.755906" stroke-miterlimit="22.9256"></path><path fill-rule="evenodd" clip-rule="evenodd" d="M109.393 0.881566C136.704 14.6322 185.355 15.1058 213.804 0.454102C217.1 1.54223 221.652 3.1935 224.769 4.24497C243.877 10.694 256.134 12.3056 272.18 20.2887C284.862 27.155 297.318 44.5941 300.527 70.3402C287.05 92.1281 275.6 115.822 267.04 142.243L264.921 279.672C264.752 286.934 265.018 290.152 260.077 293.68C196.225 295.624 131.763 295.702 66.7178 293.986C63.1469 291.463 62.0134 287.004 61.897 279.122L63.9591 142.236C54.2189 113.13 41.4441 89.1804 25.6445 70.1127C27.4889 53.1033 34.5151 31.2274 51.3495 19.831C66.6804 10.5466 80.9315 9.60699 98.4654 3.81486L109.393 0.881566Z" fill="#C4C2C2" stroke="#282829" stroke-width="0.755906" stroke-miterlimit="22.9256"></path><path d="M246.711 294.215L246.754 323.913" stroke="#282829" stroke-width="0.755906" stroke-miterlimit="22.9256"></path><path d="M252.199 293.801L252.248 323.498" stroke="#282829" stroke-width="0.755906" stroke-miterlimit="22.9256"></path><path d="M256.777 293.862L256.821 323.563" stroke="#282829" stroke-width="0.755906" stroke-miterlimit="22.9256"></path><path d="M69.4805 293.956L69.5326 325.237" stroke="#282829" stroke-width="0.755906" stroke-miterlimit="22.9256"></path><path d="M26.8175 305.315L22.7266 338.749" stroke="#282829" stroke-width="0.755906" stroke-miterlimit="22.9256"></path><path d="M30.9226 305.416L26.832 338.85" stroke="#282829" stroke-width="0.755906" stroke-miterlimit="22.9256"></path><path d="M35.1886 305.613L31.0977 339.047" stroke="#282829" stroke-width="0.755906" stroke-miterlimit="22.9256"></path><path d="M39.3289 305.676L35.2383 339.11" stroke="#282829" stroke-width="0.755906" stroke-miterlimit="22.9256"></path><path d="M19.0949 304.715L15.0039 338.149" stroke="#282829" stroke-width="0.755906" stroke-miterlimit="22.9256"></path><path d="M15.3605 304.265L11.2695 337.698" stroke="#282829" stroke-width="0.755906" stroke-miterlimit="22.9256"></path><path d="M11.1105 303.492L7.01953 336.926" stroke="#282829" stroke-width="0.755906" stroke-miterlimit="22.9256"></path><path d="M6.9269 302.14L2.83594 335.574" stroke="#282829" stroke-width="0.755906" stroke-miterlimit="22.9256"></path><path d="M57.5195 100.868C66.401 108.719 63.4379 122.777 63.9485 143.062" stroke="#282829" stroke-width="0.755906" stroke-miterlimit="22.9256"></path><path d="M273.443 101.433C264.561 109.283 267.525 123.341 267.014 143.627" stroke="#282829" stroke-width="0.755906" stroke-miterlimit="22.9256"></path><path d="M208.415 13.215C203.215 14.6871 198.01 16.1588 191.296 17.2723C184.581 18.3816 176.357 19.1341 168.446 19.4735C160.536 19.8099 152.945 19.7369 146.16 19.2796C139.379 18.8189 133.4 17.9764 128.255 16.8701C123.107 15.7616 118.798 14.393 116.64 13.7108C114.484 13.0264 114.484 13.0264 114.484 13.0264C114.484 13.0264 114.484 13.0264 115.667 15.0008C116.848 16.9779 119.214 20.9271 121.224 23.8075C123.237 26.6878 124.898 28.4952 126.992 30.2039C129.088 31.9108 131.623 33.522 134.018 34.8085C136.411 36.0951 138.669 37.0581 141.617 38.048C144.568 39.0375 148.21 40.0523 151.301 40.6358C154.391 41.2182 156.929 41.3736 159.609 41.4507C162.286 41.5289 165.105 41.5327 167.914 41.2636C170.723 40.9964 173.516 40.4563 176.486 39.6796C179.454 38.9006 182.591 37.8847 185.505 36.5777C188.415 35.2674 191.104 33.6652 193.411 31.9728C195.72 30.2807 197.649 28.4963 199.674 26.1255C201.7 23.7553 203.823 20.8001 205.296 18.5505C206.769 16.3006 207.593 14.7585 208.415 13.215Z" fill="#B8B6B6" stroke="#282829" stroke-width="0.755906" stroke-miterlimit="22.9256"></path><path d="M109.901 0.818243C108.865 0.404385 109.112 0.927472 109.112 0.927472C109.112 0.927472 108.865 0.404385 109.787 2.3584C110.711 4.31582 112.558 8.22801 113.512 10.2433C114.469 12.26 114.534 12.3779 114.564 12.4369C114.595 12.497 114.595 12.497 114.595 12.497C114.595 12.497 114.595 12.497 116.872 13.1293C119.149 13.7616 123.705 15.0247 128.249 15.998C132.798 16.9731 137.338 17.6572 141.525 18.1145C145.709 18.5718 149.535 18.8001 153.694 18.9037C157.859 19.0053 162.352 18.9834 167.138 18.8001C171.921 18.6168 177.001 18.2725 181.689 17.7902C186.379 17.3098 190.677 16.6926 194.579 15.9613C198.483 15.2322 201.985 14.389 204.257 13.8217C206.524 13.2559 207.56 12.9672 208.076 12.8216C208.596 12.6788 208.596 12.6788 208.596 12.6788C208.596 12.6788 208.596 12.6788 209.321 11.0766C210.046 9.47638 211.494 6.2721 212.419 4.26291C213.345 2.25144 213.165 1.19733 213.366 0.786497C213.567 0.37793 213.567 0.37793 213.567 0.37793C213.567 0.37793 214.145 0.612638 211.491 1.36061C208.838 2.1082 203.533 3.603 198.17 4.83172C192.802 6.06158 187.375 7.02461 181.324 7.74196C175.274 8.45818 168.596 8.93062 161.971 9.02397C155.349 9.11771 148.78 8.83198 143.257 8.36974C137.74 7.90599 133.27 7.2665 128.75 6.32237C124.233 5.37862 119.665 4.1344 116.342 3.09579C113.019 2.05944 110.939 1.23172 109.901 0.818243Z" fill="#B8B6B6" stroke="#282829" stroke-width="0.755906" stroke-miterlimit="22.9256"></path><path d="M109.998 2.68231C109.157 0.679157 109.157 0.679157 109.157 0.679157C105.525 1.74423 101.925 2.78738 98.0703 3.96659C100.566 10.1805 102.913 16.0917 106.312 21.7024C109.714 27.3108 114.019 32.3157 118.587 36.2302C123.158 40.1416 127.994 42.9585 133.921 45.1978C139.845 47.4349 146.858 49.0949 153.99 49.7726C161.125 50.4506 168.376 50.1464 174.387 49.2533C180.393 48.3621 185.158 46.882 190.282 44.5342C195.403 42.1874 200.89 38.9748 205.435 34.9784C209.986 30.9845 213.593 26.2061 216.669 20.9174C219.745 15.6295 222.061 10.2606 224.601 4.46284C221.011 2.92193 217.285 1.6985 213.567 0.37793C213.567 0.37793 213.567 0.377929 212.424 3.06291C211.278 5.74864 209.038 10.9077 206.69 15.3037C204.342 19.6981 201.935 23.1193 199.456 25.9143C196.978 28.7096 194.428 30.8787 191.472 32.798C188.51 34.7157 185.142 36.3866 181.543 37.6165C177.937 38.8482 174.101 39.6431 170.699 40.1442C167.296 40.6469 164.326 40.8574 160.715 40.7569C157.105 40.6556 152.856 40.2417 148.539 39.3418C144.22 38.4442 139.83 37.0609 136.214 35.4104C132.601 33.758 129.761 31.8387 127.333 29.7944C124.902 27.7496 122.881 25.5813 120.744 22.6605C118.6 19.7393 116.34 16.0701 114.365 12.2294C112.391 8.3909 110.844 4.68621 109.998 2.68231Z" fill="#C4C2C2" stroke="#282829" stroke-width="0.755906" stroke-miterlimit="22.9256"></path><path d="M205.356 16.1644C206.31 15.9391 206.31 15.9391 206.31 15.9391C206.31 15.9391 206.31 15.9391 206.876 14.9504C207.419 13.9617 208.285 11.9476 208.865 10.9535C209.43 9.96179 209.331 9.95877 209.388 9.83594C209.144 9.98485 209.69 10.0019 208.566 10.3405C207.442 10.6773 204.478 11.4071 201.348 12.1362C198.223 12.8649 194.211 13.6499 189.738 14.3385C185.265 15.0294 180.329 15.6254 175.236 16.0245C170.143 16.4252 164.888 16.63 160.229 16.6621C155.563 16.6939 151.494 16.551 147.508 16.2831C143.525 16.0158 139.624 15.6209 135.267 14.9829C130.912 14.3453 126.091 13.4658 122.341 12.6249C118.587 11.7835 115.898 10.9845 114.552 10.5824C113.21 10.1821 113.298 10.0911 113.298 10.0911C113.298 10.0911 113.298 10.0911 113.742 11.1127C114.276 12.0439 115.346 13.9031 115.88 14.8344C116.411 15.7653 116.411 15.7653 116.411 15.7653C116.411 15.7653 116.411 15.7653 118.071 16.153C119.727 16.5416 123.042 17.3179 126.212 17.9729C129.381 18.6328 132.405 19.1683 135.931 19.657C139.452 20.1461 143.479 20.5849 147.564 20.8661C151.65 21.1458 155.791 21.2641 160.189 21.2278C164.582 21.19 169.227 20.9957 173.771 20.6722C178.31 20.3498 182.749 19.8978 187.083 19.3203C191.416 18.7413 195.641 18.0383 198.711 17.4608C201.78 16.8851 204.405 16.3866 205.356 16.1644Z" fill="#B8B6B6" stroke="#282829" stroke-width="0.755906" stroke-miterlimit="22.9256"></path><path d="M96.2656 4.68945C107.758 33.9914 119.264 49.8514 161.196 51.9453C199.904 50.6678 212.802 34.9873 226.501 4.91471" stroke="#282829" stroke-width="0.755906" stroke-miterlimit="22.9256" stroke-dasharray="3.2 3.2"></path><path d="M99.1016 6.73215L110.106 3.11816" stroke="#282829" stroke-width="0.755906" stroke-miterlimit="22.9256"></path><path d="M100.324 9.68877L111.461 6.22559" stroke="#282829" stroke-width="0.755906" stroke-miterlimit="22.9256"></path><path d="M101.891 12.9193L112.998 9.19727" stroke="#282829" stroke-width="0.755906" stroke-miterlimit="22.9256"></path><path d="M103.531 16.4234L114.642 12.4072" stroke="#282829" stroke-width="0.755906" stroke-miterlimit="22.9256"></path><path d="M105.23 19.7616L116.099 15.668" stroke="#282829" stroke-width="0.755906" stroke-miterlimit="22.9256"></path><path d="M107.414 22.996L118.282 18.9023" stroke="#282829" stroke-width="0.755906" stroke-miterlimit="22.9256"></path><path d="M109.531 26.4817L120.043 22.0566" stroke="#282829" stroke-width="0.755906" stroke-miterlimit="22.9256"></path><path d="M112.113 29.723L122.507 24.9336" stroke="#282829" stroke-width="0.755906" stroke-miterlimit="22.9256"></path><path d="M114.984 32.8587L124.852 27.5186" stroke="#282829" stroke-width="0.755906" stroke-miterlimit="22.9256"></path><path d="M127.331 29.7939L118.586 36.2297" stroke="#282829" stroke-width="0.755906" stroke-miterlimit="22.9256"></path><path d="M130.191 31.9883L122.188 39.0443" stroke="#282829" stroke-width="0.755906" stroke-miterlimit="22.9256"></path><path d="M133.062 33.7979L126.129 41.5614" stroke="#282829" stroke-width="0.755906" stroke-miterlimit="22.9256"></path><path d="M136.214 35.4102L130.328 43.7081" stroke="#282829" stroke-width="0.755906" stroke-miterlimit="22.9256"></path><path d="M139.625 36.8066L134.43 45.3877" stroke="#282829" stroke-width="0.755906" stroke-miterlimit="22.9256"></path><path d="M143.257 38.0098L138.777 46.8274" stroke="#282829" stroke-width="0.755906" stroke-miterlimit="22.9256"></path><path d="M146.814 38.958L143.188 47.9964" stroke="#282829" stroke-width="0.755906" stroke-miterlimit="22.9256"></path><path d="M150.373 39.6963L147.402 48.8681" stroke="#282829" stroke-width="0.755906" stroke-miterlimit="22.9256"></path><path d="M154.222 40.2695L151.934 49.549" stroke="#282829" stroke-width="0.755906" stroke-miterlimit="22.9256"></path><path d="M157.984 40.4336L156.484 49.9697" stroke="#282829" stroke-width="0.755906" stroke-miterlimit="22.9256"></path><path d="M161.628 40.6172L161.242 50.1389" stroke="#282829" stroke-width="0.755906" stroke-miterlimit="22.9256"></path><path d="M223.408 6.64914L212.402 3.03516" stroke="#282829" stroke-width="0.755906" stroke-miterlimit="22.9256"></path><path d="M222.18 9.60711L211.043 6.14355" stroke="#282829" stroke-width="0.755906" stroke-miterlimit="22.9256"></path><path d="M220.614 12.8369L209.508 9.11523" stroke="#282829" stroke-width="0.755906" stroke-miterlimit="22.9256"></path><path d="M218.978 16.3403L207.867 12.3242" stroke="#282829" stroke-width="0.755906" stroke-miterlimit="22.9256"></path><path d="M217.279 19.6799L206.41 15.5859" stroke="#282829" stroke-width="0.755906" stroke-miterlimit="22.9256"></path><path d="M215.091 22.9129L204.223 18.8193" stroke="#282829" stroke-width="0.755906" stroke-miterlimit="22.9256"></path><path d="M212.976 26.3997L202.465 21.9746" stroke="#282829" stroke-width="0.755906" stroke-miterlimit="22.9256"></path><path d="M210.394 29.6406L200 24.8516" stroke="#282829" stroke-width="0.755906" stroke-miterlimit="22.9256"></path><path d="M207.524 32.7766L197.656 27.4365" stroke="#282829" stroke-width="0.755906" stroke-miterlimit="22.9256"></path><path d="M195.176 29.7119L203.921 36.1469" stroke="#282829" stroke-width="0.755906" stroke-miterlimit="22.9256"></path><path d="M192.316 31.9062L200.32 38.9619" stroke="#282829" stroke-width="0.755906" stroke-miterlimit="22.9256"></path><path d="M189.445 33.7158L196.379 41.4801" stroke="#282829" stroke-width="0.755906" stroke-miterlimit="22.9256"></path><path d="M186.293 35.3271L192.178 43.6251" stroke="#282829" stroke-width="0.755906" stroke-miterlimit="22.9256"></path><path d="M182.883 36.7246L188.078 45.3053" stroke="#282829" stroke-width="0.755906" stroke-miterlimit="22.9256"></path><path d="M179.25 37.9277L183.73 46.7454" stroke="#282829" stroke-width="0.755906" stroke-miterlimit="22.9256"></path><path d="M175.695 38.875L179.321 47.9141" stroke="#282829" stroke-width="0.755906" stroke-miterlimit="22.9256"></path><path d="M172.133 39.6143L175.104 48.786" stroke="#282829" stroke-width="0.755906" stroke-miterlimit="22.9256"></path><path d="M168.285 40.1875L170.574 49.4666" stroke="#282829" stroke-width="0.755906" stroke-miterlimit="22.9256"></path><path d="M164.523 40.3516L166.023 49.8877" stroke="#282829" stroke-width="0.755906" stroke-miterlimit="22.9256"></path><path d="M114.022 2.32227L114.008 10.3931" stroke="#282829" stroke-width="0.755906" stroke-miterlimit="22.9256"></path><path d="M117.732 3.51953L117.5 11.3099" stroke="#282829" stroke-width="0.755906" stroke-miterlimit="22.9256"></path><path d="M121.25 4.58496L121.27 12.4109" stroke="#282829" stroke-width="0.755906" stroke-miterlimit="22.9256"></path><path d="M124.947 5.46387L124.887 13.1684" stroke="#282829" stroke-width="0.755906" stroke-miterlimit="22.9256"></path><path d="M128.613 6.29199L128.776 13.9153" stroke="#282829" stroke-width="0.755906" stroke-miterlimit="22.9256"></path><path d="M132.469 7.03027L132.558 14.5648" stroke="#282829" stroke-width="0.755906" stroke-miterlimit="22.9256"></path><path d="M110.835 1.21387L110.805 4.45897" stroke="#282829" stroke-width="0.755906" stroke-miterlimit="22.9256"></path><path d="M136.267 7.52832L136.258 15.0386" stroke="#282829" stroke-width="0.755906" stroke-miterlimit="22.9256"></path><path d="M139.822 8.0293L139.812 15.5388" stroke="#282829" stroke-width="0.755906" stroke-miterlimit="22.9256"></path><path d="M143.439 8.49121L143.43 16.0015" stroke="#282829" stroke-width="0.755906" stroke-miterlimit="22.9256"></path><path d="M146.906 8.68359L146.971 16.2903" stroke="#282829" stroke-width="0.755906" stroke-miterlimit="22.9256"></path><path d="M150.699 8.79297L150.764 16.3996" stroke="#282829" stroke-width="0.755906" stroke-miterlimit="22.9256"></path><path d="M208.555 1.95801L208.569 10.0281" stroke="#282829" stroke-width="0.755906" stroke-miterlimit="22.9256"></path><path d="M204.848 3.15527L205.08 10.9456" stroke="#282829" stroke-width="0.755906" stroke-miterlimit="22.9256"></path><path d="M201.333 4.21973L201.312 12.0456" stroke="#282829" stroke-width="0.755906" stroke-miterlimit="22.9256"></path><path d="M197.633 5.09961L197.693 12.8046" stroke="#282829" stroke-width="0.755906" stroke-miterlimit="22.9256"></path><path d="M193.967 5.92773L193.805 13.551" stroke="#282829" stroke-width="0.755906" stroke-miterlimit="22.9256"></path><path d="M190.113 6.66504L190.023 14.2003" stroke="#282829" stroke-width="0.755906" stroke-miterlimit="22.9256"></path><path d="M211.746 1.15234L211.755 4.51877" stroke="#282829" stroke-width="0.755906" stroke-miterlimit="22.9256"></path><path d="M186.312 7.16406L186.322 14.674" stroke="#282829" stroke-width="0.755906" stroke-miterlimit="22.9256"></path><path d="M182.758 7.66406L182.767 15.1744" stroke="#282829" stroke-width="0.755906" stroke-miterlimit="22.9256"></path><path d="M179.285 8.09668L179.295 15.6062" stroke="#282829" stroke-width="0.755906" stroke-miterlimit="22.9256"></path><path d="M175.917 8.25781L175.852 15.8641" stroke="#282829" stroke-width="0.755906" stroke-miterlimit="22.9256"></path><path d="M172.565 8.31934L172.5 15.926" stroke="#282829" stroke-width="0.755906" stroke-miterlimit="22.9256"></path><path d="M154.371 8.83594L154.436 16.4422" stroke="#282829" stroke-width="0.755906" stroke-miterlimit="22.9256"></path><path d="M169.288 8.48438L169.223 16.0907" stroke="#282829" stroke-width="0.755906" stroke-miterlimit="22.9256"></path><path d="M166.12 8.87109L166.055 16.4778" stroke="#282829" stroke-width="0.755906" stroke-miterlimit="22.9256"></path><path d="M158.213 9.03418L158.148 16.6401" stroke="#282829" stroke-width="0.755906" stroke-miterlimit="22.9256"></path><path d="M162.241 8.98535L162.176 16.592" stroke="#282829" stroke-width="0.755906" stroke-miterlimit="22.9256"></path><path d="M143.257 38.0098L138.777 46.8274" stroke="#282829" stroke-width="0.755906" stroke-miterlimit="22.9256"></path><path d="M146.814 38.958L143.188 47.9964" stroke="#282829" stroke-width="0.755906" stroke-miterlimit="22.9256"></path><path d="M150.373 39.6963L147.402 48.8681" stroke="#282829" stroke-width="0.755906" stroke-miterlimit="22.9256"></path><path d="M154.222 40.2695L151.934 49.549" stroke="#282829" stroke-width="0.755906" stroke-miterlimit="22.9256"></path><path d="M157.984 40.4336L156.484 49.9697" stroke="#282829" stroke-width="0.755906" stroke-miterlimit="22.9256"></path><path d="M161.628 40.6172L161.242 50.1389" stroke="#282829" stroke-width="0.755906" stroke-miterlimit="22.9256"></path><path d="M220.614 12.8369L209.508 9.11523" stroke="#282829" stroke-width="0.755906" stroke-miterlimit="22.9256"></path><path d="M218.978 16.3403L207.867 12.3242" stroke="#282829" stroke-width="0.755906" stroke-miterlimit="22.9256"></path><path d="M217.279 19.6799L206.41 15.5859" stroke="#282829" stroke-width="0.755906" stroke-miterlimit="22.9256"></path><path d="M215.091 22.9129L204.223 18.8193" stroke="#282829" stroke-width="0.755906" stroke-miterlimit="22.9256"></path><path d="M212.976 26.3997L202.465 21.9746" stroke="#282829" stroke-width="0.755906" stroke-miterlimit="22.9256"></path><path d="M210.394 29.6406L200 24.8516" stroke="#282829" stroke-width="0.755906" stroke-miterlimit="22.9256"></path><path d="M207.524 32.7766L197.656 27.4365" stroke="#282829" stroke-width="0.755906" stroke-miterlimit="22.9256"></path><path d="M195.176 29.7119L203.921 36.1469" stroke="#282829" stroke-width="0.755906" stroke-miterlimit="22.9256"></path><path d="M192.316 31.9062L200.32 38.9619" stroke="#282829" stroke-width="0.755906" stroke-miterlimit="22.9256"></path><path d="M189.445 33.7158L196.379 41.4801" stroke="#282829" stroke-width="0.755906" stroke-miterlimit="22.9256"></path><path d="M186.293 35.3271L192.178 43.6251" stroke="#282829" stroke-width="0.755906" stroke-miterlimit="22.9256"></path><path d="M182.883 36.7246L188.078 45.3053" stroke="#282829" stroke-width="0.755906" stroke-miterlimit="22.9256"></path><path d="M179.25 37.9277L183.73 46.7454" stroke="#282829" stroke-width="0.755906" stroke-miterlimit="22.9256"></path><path d="M175.695 38.875L179.321 47.9141" stroke="#282829" stroke-width="0.755906" stroke-miterlimit="22.9256"></path><path d="M172.133 39.6143L175.104 48.786" stroke="#282829" stroke-width="0.755906" stroke-miterlimit="22.9256"></path><path d="M168.285 40.1875L170.574 49.4666" stroke="#282829" stroke-width="0.755906" stroke-miterlimit="22.9256"></path><path d="M164.523 40.3516L166.023 49.8877" stroke="#282829" stroke-width="0.755906" stroke-miterlimit="22.9256"></path><path d="M136.267 7.52832L136.258 15.0386" stroke="#282829" stroke-width="0.755906" stroke-miterlimit="22.9256"></path><path d="M139.822 8.0293L139.812 15.5388" stroke="#282829" stroke-width="0.755906" stroke-miterlimit="22.9256"></path><path d="M143.439 8.49121L143.43 16.0015" stroke="#282829" stroke-width="0.755906" stroke-miterlimit="22.9256"></path><path d="M146.906 8.68359L146.971 16.2903" stroke="#282829" stroke-width="0.755906" stroke-miterlimit="22.9256"></path><path d="M150.699 8.79297L150.764 16.3996" stroke="#282829" stroke-width="0.755906" stroke-miterlimit="22.9256"></path><path d="M190.113 6.66504L190.023 14.2003" stroke="#282829" stroke-width="0.755906" stroke-miterlimit="22.9256"></path><path d="M186.312 7.16406L186.322 14.674" stroke="#282829" stroke-width="0.755906" stroke-miterlimit="22.9256"></path><path d="M182.758 7.66406L182.767 15.1744" stroke="#282829" stroke-width="0.755906" stroke-miterlimit="22.9256"></path><path d="M179.285 8.09668L179.295 15.6062" stroke="#282829" stroke-width="0.755906" stroke-miterlimit="22.9256"></path><path d="M175.917 8.25781L175.852 15.8641" stroke="#282829" stroke-width="0.755906" stroke-miterlimit="22.9256"></path><path d="M172.565 8.31934L172.5 15.926" stroke="#282829" stroke-width="0.755906" stroke-miterlimit="22.9256"></path><path d="M154.371 8.83594L154.436 16.4422" stroke="#282829" stroke-width="0.755906" stroke-miterlimit="22.9256"></path><path d="M169.288 8.48438L169.223 16.0907" stroke="#282829" stroke-width="0.755906" stroke-miterlimit="22.9256"></path><path d="M166.12 8.87109L166.055 16.4778" stroke="#282829" stroke-width="0.755906" stroke-miterlimit="22.9256"></path><path d="M158.213 9.03418L158.148 16.6401" stroke="#282829" stroke-width="0.755906" stroke-miterlimit="22.9256"></path><path d="M162.241 8.98535L162.176 16.592" stroke="#282829" stroke-width="0.755906" stroke-miterlimit="22.9256"></path></svg> 