<?xml version="1.0" encoding="UTF-8"?> <svg xmlns="http://www.w3.org/2000/svg" width="438" height="420" viewBox="0 0 438 420" fill="none"><path fill-rule="evenodd" clip-rule="evenodd" d="M63.7941 57.6494L0.53125 169.373L88.191 209.685L98.8541 187.925L98.8783 137.908C97.9217 106.485 81.7401 71.2621 63.7941 57.6494Z" fill="#C4C2C2" stroke="#282829" stroke-width="0.755906" stroke-miterlimit="22.9256"></path><path fill-rule="evenodd" clip-rule="evenodd" d="M373.576 57.6855L436.839 169.409L349.18 209.721L338.516 187.961L338.492 137.944C339.448 106.52 355.63 71.2971 373.576 57.6855Z" fill="#C4C2C2" stroke="#282829" stroke-width="0.755906" stroke-miterlimit="22.9256"></path><path fill-rule="evenodd" clip-rule="evenodd" d="M168.877 2.74073C181.752 46.8641 203.258 48.8215 219.405 49.0637C236.53 49.3215 255.297 48.3611 268.459 2.66211C300.994 13.6942 332.537 27.5042 362.618 45.4067C366.447 47.9696 370.052 51.8485 373.527 57.7344C352.733 79.4617 341.219 106.534 338.533 138.776L339.129 418.853L98.7421 418.6L98.8781 137.908C97.8482 110.055 82.8647 72.9719 63.834 57.5896C69.526 51.0363 69.7758 50.7252 76.9157 45.3836C106.374 26.5824 137.299 13.4062 168.877 2.74073Z" fill="#C4C2C2" stroke="#282829" stroke-width="0.755906" stroke-miterlimit="22.9256"></path><path d="M98.4863 409.246L339.918 408.587" stroke="#282829" stroke-width="0.755906" stroke-miterlimit="22.9256" stroke-dasharray="3.2 3.2"></path><path d="M98.3555 406.632L339.787 405.974" stroke="#282829" stroke-width="0.755906" stroke-miterlimit="22.9256" stroke-dasharray="3.2 3.2"></path><path d="M4.49414 162.095L92.1535 202.407" stroke="#282829" stroke-width="0.755906" stroke-miterlimit="22.9256" stroke-dasharray="3.2 3.2"></path><path d="M5.80078 159.849L93.4601 200.161" stroke="#282829" stroke-width="0.755906" stroke-miterlimit="22.9256" stroke-dasharray="3.2 3.2"></path><path d="M98.8782 137.908L98.0059 96.9463" stroke="#282829" stroke-width="0.755906" stroke-miterlimit="22.9256"></path><path d="M432.994 162.127L345.334 202.439" stroke="#282829" stroke-width="0.755906" stroke-miterlimit="22.9256" stroke-dasharray="3.2 3.2"></path><path d="M431.687 159.88L344.027 200.192" stroke="#282829" stroke-width="0.755906" stroke-miterlimit="22.9256" stroke-dasharray="3.2 3.2"></path><path d="M338.609 137.939L339.481 96.9775" stroke="#282829" stroke-width="0.755906" stroke-miterlimit="22.9256"></path><path d="M263.33 17.324C258.398 18.9976 253.462 20.6708 247.095 21.9369C240.726 23.1986 232.951 23.7288 225.448 24.1147C217.947 24.4976 210.747 24.4144 204.312 23.8944C197.881 23.3705 192.186 22.7375 187.306 21.4796C182.424 20.2195 178.337 18.6639 176.29 17.8879C174.246 17.1094 174.246 17.1094 174.246 17.1094C174.246 17.1094 174.246 17.1094 175.368 19.354C176.488 21.6028 178.732 26.0922 180.638 29.3679C182.547 32.6428 184.123 34.6978 186.108 36.6408C188.097 38.5816 190.5 40.4132 192.772 41.8758C195.041 43.3389 197.183 44.4342 199.979 45.5598C202.777 46.6846 206.231 47.8384 209.163 48.5021C212.093 49.1643 214.501 49.3408 217.042 49.4281C219.581 49.5181 222.255 49.5214 224.919 49.2161C227.583 48.9122 230.232 48.298 233.048 47.4151C235.863 46.5288 238.838 45.3738 241.603 43.8873C244.362 42.3978 246.912 40.5764 249.1 38.6523C251.289 36.7281 253.12 34.6996 255.04 32.0033C256.962 29.3085 258.975 25.9482 260.372 23.3902C261.769 20.8322 262.55 19.0789 263.33 17.324Z" fill="#B8B6B6" stroke="#282829" stroke-width="0.755906" stroke-miterlimit="22.9256"></path><path d="M169.898 3.22804C168.916 2.75749 169.207 2.74239 168.965 2.77074C168.855 2.76431 168.916 2.75749 169.79 4.97947C170.666 7.20523 170.709 7.64746 171.613 9.93936C171.815 10.5709 172.191 11.5971 172.219 11.6636C172.543 12.8625 173.076 13.8723 173.076 13.8723C173.076 13.8723 174.244 14.5677 176.404 15.287C178.519 15.9386 182.86 17.2048 187.214 18.0873C191.527 19.1962 195.834 19.9736 199.805 20.4941C203.773 21.0137 207.401 21.2738 211.346 21.3909C215.296 21.507 219.557 21.482 224.096 21.2738C228.632 21.0648 233.45 20.6732 237.897 20.1252C242.344 19.5787 246.421 18.8768 250.121 18.046C253.824 17.2164 257.146 16.2583 259.299 15.6124C261.45 14.9699 263.234 14.3709 263.723 14.2053C264.217 14.0424 264.217 14.0424 264.217 14.0424C264.217 14.0424 264.217 14.0424 264.904 12.2211C265.591 10.4012 266.249 9.42912 267.127 7.14439C268.005 4.85778 268.382 3.92575 268.573 3.45936C268.763 2.99485 268.109 2.53223 268.109 2.53223C268.109 2.53223 267.688 2.82175 265.914 3.45633C263.398 4.30634 258.699 6.39455 253.613 7.79108C248.522 9.18951 243.375 10.2848 237.637 11.1004C231.898 11.9145 225.565 12.4512 219.282 12.5582C213.002 12.664 206.771 12.3394 201.533 11.8136C196.301 11.2864 192.062 10.5596 187.774 9.48582C183.491 8.41319 179.159 6.9981 176.007 5.81776C172.856 4.63892 170.883 3.69784 169.898 3.22804Z" fill="#B8B6B6" stroke="#282829" stroke-width="0.755906" stroke-miterlimit="22.9256"></path><path d="M169.852 5.00628C169.054 2.72836 169.054 2.72834 169.054 2.72834C169.054 2.72834 169.054 2.72835 167.301 3.3531C165.547 3.97786 162.044 5.2221 158.539 6.46708C160.905 13.5314 163.268 20.5942 166.492 26.9736C169.718 33.352 173.801 39.042 178.134 43.4921C182.469 47.9398 187.055 51.1426 192.677 53.6896C198.295 56.2321 204.946 58.1204 211.71 58.8906C218.476 59.6609 225.354 59.3158 231.054 58.3006C236.751 57.2873 241.27 55.6036 246.129 52.9341C250.986 50.2661 256.19 46.6136 260.5 42.0691C264.816 37.528 268.238 32.0953 271.155 26.0817C274.072 20.0685 276.486 13.4751 278.895 6.8832C277.651 6.39866 276.408 5.91902 275.783 5.67751C275.16 5.43449 275.16 5.4345 274.012 4.94316C272.861 4.45409 270.559 3.4733 269.41 2.9812C268.256 2.49024 268.256 2.49023 268.256 2.49023C268.256 2.49023 268.256 2.49026 267.171 5.54261C266.085 8.59571 263.918 14.7008 261.691 19.6988C259.464 24.6946 257.181 28.5849 254.83 31.7635C252.48 34.9413 250.061 37.4078 247.258 39.5905C244.449 41.7709 241.255 43.6701 237.841 45.0689C234.421 46.4696 230.782 47.3729 227.557 47.9436C224.329 48.5147 221.512 48.7535 218.087 48.6398C214.665 48.5241 210.635 48.0536 206.54 47.0305C202.444 46.0104 198.28 44.4366 194.852 42.5604C191.425 40.682 188.731 38.4997 186.428 36.1749C184.123 33.8505 182.206 31.384 180.179 28.0629C178.145 24.7418 176.002 20.57 174.129 16.2031C172.258 11.8389 170.654 7.28458 169.852 5.00628Z" fill="#C4C2C2" stroke="#282829" stroke-width="0.755906" stroke-miterlimit="22.9256"></path><path d="M156.939 6.89844C167.839 40.2157 178.888 59.2404 218.656 61.6203C255.367 60.1683 267.88 41.709 280.871 7.51638" stroke="#282829" stroke-width="0.755906" stroke-miterlimit="22.9256" stroke-dasharray="3.2 3.2"></path><path d="M159.654 9.95321L170.091 5.84375" stroke="#282829" stroke-width="0.755906" stroke-miterlimit="22.9256"></path><path d="M160.816 13.3152L171.379 9.37695" stroke="#282829" stroke-width="0.755906" stroke-miterlimit="22.9256"></path><path d="M162.303 16.9882L172.836 12.7559" stroke="#282829" stroke-width="0.755906" stroke-miterlimit="22.9256"></path><path d="M163.855 20.9713L174.392 16.4053" stroke="#282829" stroke-width="0.755906" stroke-miterlimit="22.9256"></path><path d="M165.469 24.7678L175.776 20.1133" stroke="#282829" stroke-width="0.755906" stroke-miterlimit="22.9256"></path><path d="M167.539 28.4441L177.847 23.79" stroke="#282829" stroke-width="0.755906" stroke-miterlimit="22.9256"></path><path d="M169.547 32.4082L179.516 27.377" stroke="#282829" stroke-width="0.755906" stroke-miterlimit="22.9256"></path><path d="M171.996 36.0944L181.854 30.6484" stroke="#282829" stroke-width="0.755906" stroke-miterlimit="22.9256"></path><path d="M174.719 39.6601L184.077 33.5879" stroke="#282829" stroke-width="0.755906" stroke-miterlimit="22.9256"></path><path d="M186.429 36.1748L178.135 43.492" stroke="#282829" stroke-width="0.755906" stroke-miterlimit="22.9256"></path><path d="M189.141 38.6699L181.551 46.6927" stroke="#282829" stroke-width="0.755906" stroke-miterlimit="22.9256"></path><path d="M191.863 40.7275L185.287 49.555" stroke="#282829" stroke-width="0.755906" stroke-miterlimit="22.9256"></path><path d="M194.853 42.5596L189.271 51.9944" stroke="#282829" stroke-width="0.755906" stroke-miterlimit="22.9256"></path><path d="M198.088 44.1484L193.16 53.9053" stroke="#282829" stroke-width="0.755906" stroke-miterlimit="22.9256"></path><path d="M201.532 45.5166L197.283 55.5426" stroke="#282829" stroke-width="0.755906" stroke-miterlimit="22.9256"></path><path d="M204.905 46.5947L201.467 56.872" stroke="#282829" stroke-width="0.755906" stroke-miterlimit="22.9256"></path><path d="M208.284 47.4346L205.467 57.8626" stroke="#282829" stroke-width="0.755906" stroke-miterlimit="22.9256"></path><path d="M211.933 48.0869L209.762 58.6374" stroke="#282829" stroke-width="0.755906" stroke-miterlimit="22.9256"></path><path d="M215.498 48.2725L214.076 59.1144" stroke="#282829" stroke-width="0.755906" stroke-miterlimit="22.9256"></path><path d="M218.956 48.4805L218.59 59.3066" stroke="#282829" stroke-width="0.755906" stroke-miterlimit="22.9256"></path><path d="M277.547 9.8595L267.109 5.75" stroke="#282829" stroke-width="0.755906" stroke-miterlimit="22.9256"></path><path d="M276.385 13.2215L265.822 9.2832" stroke="#282829" stroke-width="0.755906" stroke-miterlimit="22.9256"></path><path d="M274.899 16.8944L264.365 12.6621" stroke="#282829" stroke-width="0.755906" stroke-miterlimit="22.9256"></path><path d="M273.346 20.878L262.809 16.3115" stroke="#282829" stroke-width="0.755906" stroke-miterlimit="22.9256"></path><path d="M271.733 24.6748L261.426 20.0195" stroke="#282829" stroke-width="0.755906" stroke-miterlimit="22.9256"></path><path d="M269.661 28.3508L259.354 23.6963" stroke="#282829" stroke-width="0.755906" stroke-miterlimit="22.9256"></path><path d="M267.655 32.3149L257.686 27.2832" stroke="#282829" stroke-width="0.755906" stroke-miterlimit="22.9256"></path><path d="M265.203 36.0002L255.346 30.5547" stroke="#282829" stroke-width="0.755906" stroke-miterlimit="22.9256"></path><path d="M262.483 39.5663L253.125 33.4941" stroke="#282829" stroke-width="0.755906" stroke-miterlimit="22.9256"></path><path d="M250.773 36.0811L259.067 43.3986" stroke="#282829" stroke-width="0.755906" stroke-miterlimit="22.9256"></path><path d="M248.061 38.5762L255.651 46.599" stroke="#282829" stroke-width="0.755906" stroke-miterlimit="22.9256"></path><path d="M245.338 40.6338L251.914 49.4612" stroke="#282829" stroke-width="0.755906" stroke-miterlimit="22.9256"></path><path d="M242.35 42.4658L247.932 51.9014" stroke="#282829" stroke-width="0.755906" stroke-miterlimit="22.9256"></path><path d="M239.113 44.0547L244.041 53.8115" stroke="#282829" stroke-width="0.755906" stroke-miterlimit="22.9256"></path><path d="M235.67 45.4229L239.918 55.4488" stroke="#282829" stroke-width="0.755906" stroke-miterlimit="22.9256"></path><path d="M232.297 46.501L235.736 56.7779" stroke="#282829" stroke-width="0.755906" stroke-miterlimit="22.9256"></path><path d="M228.918 47.3408L231.736 57.7697" stroke="#282829" stroke-width="0.755906" stroke-miterlimit="22.9256"></path><path d="M225.27 47.9932L227.44 58.5437" stroke="#282829" stroke-width="0.755906" stroke-miterlimit="22.9256"></path><path d="M221.703 48.1787L223.126 59.021" stroke="#282829" stroke-width="0.755906" stroke-miterlimit="22.9256"></path><path d="M173.809 4.93848L173.795 15.0234" stroke="#282829" stroke-width="0.755906" stroke-miterlimit="22.9256"></path><path d="M177.324 6.30078L177.104 17.1219" stroke="#282829" stroke-width="0.755906" stroke-miterlimit="22.9256"></path><path d="M180.66 7.51074L180.679 17.7945" stroke="#282829" stroke-width="0.755906" stroke-miterlimit="22.9256"></path><path d="M184.169 8.51074L184.111 18.6569" stroke="#282829" stroke-width="0.755906" stroke-miterlimit="22.9256"></path><path d="M187.643 9.45312L187.797 19.1211" stroke="#282829" stroke-width="0.755906" stroke-miterlimit="22.9256"></path><path d="M191.301 10.292L191.385 19.4116" stroke="#282829" stroke-width="0.755906" stroke-miterlimit="22.9256"></path><path d="M170.785 3.67871L170.756 7.36792" stroke="#282829" stroke-width="0.755906" stroke-miterlimit="22.9256"></path><path d="M194.906 10.8584L194.896 19.3975" stroke="#282829" stroke-width="0.755906" stroke-miterlimit="22.9256"></path><path d="M198.275 11.4277L198.266 19.9664" stroke="#282829" stroke-width="0.755906" stroke-miterlimit="22.9256"></path><path d="M201.704 11.9531L201.695 20.4922" stroke="#282829" stroke-width="0.755906" stroke-miterlimit="22.9256"></path><path d="M204.994 12.1719L205.056 20.8202" stroke="#282829" stroke-width="0.755906" stroke-miterlimit="22.9256"></path><path d="M208.59 12.2959L208.652 20.945" stroke="#282829" stroke-width="0.755906" stroke-miterlimit="22.9256"></path><path d="M263.463 4.52441L263.477 15.0115" stroke="#282829" stroke-width="0.755906" stroke-miterlimit="22.9256"></path><path d="M259.947 5.88574L260.168 16.9337" stroke="#282829" stroke-width="0.755906" stroke-miterlimit="22.9256"></path><path d="M256.611 7.0957L256.592 17.7426" stroke="#282829" stroke-width="0.755906" stroke-miterlimit="22.9256"></path><path d="M253.104 8.0957L253.161 18.3159" stroke="#282829" stroke-width="0.755906" stroke-miterlimit="22.9256"></path><path d="M249.627 9.03809L249.473 18.9336" stroke="#282829" stroke-width="0.755906" stroke-miterlimit="22.9256"></path><path d="M245.969 9.87793L245.885 18.4446" stroke="#282829" stroke-width="0.755906" stroke-miterlimit="22.9256"></path><path d="M266.506 3.31543L266.496 7.437" stroke="#282829" stroke-width="0.755906" stroke-miterlimit="22.9256"></path><path d="M242.365 10.4443L242.374 18.983" stroke="#282829" stroke-width="0.755906" stroke-miterlimit="22.9256"></path><path d="M238.996 11.0127L239.005 19.551" stroke="#282829" stroke-width="0.755906" stroke-miterlimit="22.9256"></path><path d="M235.701 11.5049L235.71 20.0436" stroke="#282829" stroke-width="0.755906" stroke-miterlimit="22.9256"></path><path d="M232.507 11.6875L232.445 20.3362" stroke="#282829" stroke-width="0.755906" stroke-miterlimit="22.9256"></path><path d="M229.33 11.7568L229.268 20.4055" stroke="#282829" stroke-width="0.755906" stroke-miterlimit="22.9256"></path><path d="M212.072 12.3457L212.134 20.994" stroke="#282829" stroke-width="0.755906" stroke-miterlimit="22.9256"></path><path d="M226.22 11.9443L226.158 20.593" stroke="#282829" stroke-width="0.755906" stroke-miterlimit="22.9256"></path><path d="M223.218 12.3848L223.156 21.0339" stroke="#282829" stroke-width="0.755906" stroke-miterlimit="22.9256"></path><path d="M215.716 12.5703L215.654 21.2194" stroke="#282829" stroke-width="0.755906" stroke-miterlimit="22.9256"></path><path d="M219.539 12.5146L219.477 21.1629" stroke="#282829" stroke-width="0.755906" stroke-miterlimit="22.9256"></path><path d="M338.609 137.939L339.481 96.9775" stroke="#282829" stroke-width="0.755906" stroke-miterlimit="22.9256"></path><path d="M201.532 45.5166L197.283 55.5426" stroke="#282829" stroke-width="0.755906" stroke-miterlimit="22.9256"></path><path d="M204.905 46.5947L201.467 56.872" stroke="#282829" stroke-width="0.755906" stroke-miterlimit="22.9256"></path><path d="M208.284 47.4346L205.467 57.8626" stroke="#282829" stroke-width="0.755906" stroke-miterlimit="22.9256"></path><path d="M211.933 48.0869L209.762 58.6374" stroke="#282829" stroke-width="0.755906" stroke-miterlimit="22.9256"></path><path d="M215.498 48.2725L214.076 59.1144" stroke="#282829" stroke-width="0.755906" stroke-miterlimit="22.9256"></path><path d="M218.956 48.4805L218.59 59.3066" stroke="#282829" stroke-width="0.755906" stroke-miterlimit="22.9256"></path><path d="M274.899 16.8944L264.365 12.6621" stroke="#282829" stroke-width="0.755906" stroke-miterlimit="22.9256"></path><path d="M273.346 20.878L262.809 16.3115" stroke="#282829" stroke-width="0.755906" stroke-miterlimit="22.9256"></path><path d="M271.733 24.6748L261.426 20.0195" stroke="#282829" stroke-width="0.755906" stroke-miterlimit="22.9256"></path><path d="M269.661 28.3508L259.354 23.6963" stroke="#282829" stroke-width="0.755906" stroke-miterlimit="22.9256"></path><path d="M267.655 32.3149L257.686 27.2832" stroke="#282829" stroke-width="0.755906" stroke-miterlimit="22.9256"></path><path d="M265.203 36.0002L255.346 30.5547" stroke="#282829" stroke-width="0.755906" stroke-miterlimit="22.9256"></path><path d="M262.483 39.5663L253.125 33.4941" stroke="#282829" stroke-width="0.755906" stroke-miterlimit="22.9256"></path><path d="M250.773 36.0811L259.067 43.3986" stroke="#282829" stroke-width="0.755906" stroke-miterlimit="22.9256"></path><path d="M248.061 38.5762L255.651 46.599" stroke="#282829" stroke-width="0.755906" stroke-miterlimit="22.9256"></path><path d="M245.338 40.6338L251.914 49.4612" stroke="#282829" stroke-width="0.755906" stroke-miterlimit="22.9256"></path><path d="M242.35 42.4658L247.932 51.9014" stroke="#282829" stroke-width="0.755906" stroke-miterlimit="22.9256"></path><path d="M239.113 44.0547L244.041 53.8115" stroke="#282829" stroke-width="0.755906" stroke-miterlimit="22.9256"></path><path d="M235.67 45.4229L239.918 55.4488" stroke="#282829" stroke-width="0.755906" stroke-miterlimit="22.9256"></path><path d="M232.297 46.501L235.736 56.7779" stroke="#282829" stroke-width="0.755906" stroke-miterlimit="22.9256"></path><path d="M228.918 47.3408L231.736 57.7697" stroke="#282829" stroke-width="0.755906" stroke-miterlimit="22.9256"></path><path d="M225.27 47.9932L227.44 58.5437" stroke="#282829" stroke-width="0.755906" stroke-miterlimit="22.9256"></path><path d="M221.703 48.1787L223.126 59.021" stroke="#282829" stroke-width="0.755906" stroke-miterlimit="22.9256"></path><path d="M194.906 10.8584L194.896 19.8359" stroke="#282829" stroke-width="0.755906" stroke-miterlimit="22.9256"></path><path d="M198.275 11.4277L198.266 20.3126" stroke="#282829" stroke-width="0.755906" stroke-miterlimit="22.9256"></path><path d="M201.704 11.9531L201.695 20.4922" stroke="#282829" stroke-width="0.755906" stroke-miterlimit="22.9256"></path><path d="M204.994 12.1719L205.056 20.8202" stroke="#282829" stroke-width="0.755906" stroke-miterlimit="22.9256"></path><path d="M208.59 12.2959L208.652 20.945" stroke="#282829" stroke-width="0.755906" stroke-miterlimit="22.9256"></path><path d="M245.969 9.87793L245.885 19.3804" stroke="#282829" stroke-width="0.755906" stroke-miterlimit="22.9256"></path><path d="M242.365 10.4443L242.374 19.8603" stroke="#282829" stroke-width="0.755906" stroke-miterlimit="22.9256"></path><path d="M238.996 11.0127L239.005 20.3069" stroke="#282829" stroke-width="0.755906" stroke-miterlimit="22.9256"></path><path d="M235.701 11.5049L235.71 20.6498" stroke="#282829" stroke-width="0.755906" stroke-miterlimit="22.9256"></path><path d="M232.507 11.6875L232.445 20.5815" stroke="#282829" stroke-width="0.755906" stroke-miterlimit="22.9256"></path><path d="M229.33 11.7568L229.268 21.0953" stroke="#282829" stroke-width="0.755906" stroke-miterlimit="22.9256"></path><path d="M212.072 12.3457L212.134 20.994" stroke="#282829" stroke-width="0.755906" stroke-miterlimit="22.9256"></path><path d="M226.22 11.9443L226.158 20.9245" stroke="#282829" stroke-width="0.755906" stroke-miterlimit="22.9256"></path><path d="M223.218 12.3848L223.156 21.0339" stroke="#282829" stroke-width="0.755906" stroke-miterlimit="22.9256"></path><path d="M215.716 12.5703L215.654 21.2194" stroke="#282829" stroke-width="0.755906" stroke-miterlimit="22.9256"></path><path d="M219.539 12.5146L219.477 21.1629" stroke="#282829" stroke-width="0.755906" stroke-miterlimit="22.9256"></path><path d="M262.381 18.1602C262.48 18.1927 263.537 15.3721 263.666 15.0655C263.85 14.5394 263.982 14.3025 263.985 14.194C263.433 14.423 260.206 15.1869 259.46 15.5274C258.437 15.8747 255.97 16.6545 252.909 17.4338C250.39 18.0204 248.977 18.3152 244.802 19.1017C240.625 19.5957 236.021 20.547 231.265 20.8324C226.509 21.1185 221.602 21.2651 217.252 21.2878C212.896 21.3105 209.095 21.2092 205.374 21.0172C201.655 20.8259 197.681 20.1331 193.505 19.5053C189.299 18.7438 186.515 18.048 182.692 17.1254C179.22 16.1567 175.601 14.9839 174.288 14.4571C173.091 13.991 173.104 13.9816 173.104 13.9816C173.104 13.9816 173.076 13.9532 173.491 14.6838C173.861 15.1771 174.59 17.5937 174.926 17.8907C174.926 17.8907 175.655 18.4641 176.894 18.8398C178.469 19.395 181.784 20.1585 184.799 20.9552C187.799 21.7096 191.155 22.4126 194.598 22.9485C197.939 23.4727 201.612 24.0136 205.427 24.2933C209.241 24.4936 213.108 24.5783 217.214 24.5518C221.317 24.5242 225.654 24.3855 229.897 24.1546C234.135 23.9244 238.221 23.2142 242.267 22.8011C246.313 22.2391 250.386 21.3471 253.253 20.697C258.019 19.4978 257.488 19.4086 262.381 18.1602Z" fill="#B8B6B6" stroke="#282829" stroke-width="0.755906" stroke-miterlimit="22.9256"></path></svg> 